<?xml version="1.0" encoding="UTF-8"?>
<svg width="702px" height="266px" viewBox="0 0 702 266" version="1.1" xmlns="http://www.w3.org/2000/svg" xmlns:xlink="http://www.w3.org/1999/xlink">
    <!-- Generator: Sketch 63.1 (92452) - https://sketch.com -->
    <title>yozh</title>
    <desc>Created with Sketch.</desc>
    <defs>
        <linearGradient x1="44.0615026%" y1="51.9213398%" x2="0%" y2="56.9591183%" id="linearGradient-1">
            <stop stop-color="#E51212" offset="0%"></stop>
            <stop stop-color="#FFFFFF" offset="100%"></stop>
        </linearGradient>
        <radialGradient cx="25.8937651%" cy="79.5253577%" fx="25.8937651%" fy="79.5253577%" r="75.4284377%" gradientTransform="translate(0.258938,0.795254),scale(0.373072,1.000000),rotate(-90.000000),scale(1.000000,2.330328),translate(-0.258938,-0.795254)" id="radialGradient-2">
            <stop stop-color="#D20000" offset="0%"></stop>
            <stop stop-color="#E51212" offset="67.0858904%"></stop>
            <stop stop-color="#EE4E00" offset="100%"></stop>
        </radialGradient>
        <path d="M757,533 C729.992424,515.266667 705.685606,500.488889 684.079545,488.666667 C662.473485,476.844444 640.867424,467.162452 619.261364,459.62069 C635.465909,455.34023 648.969697,450.244444 659.772727,444.333333 C670.575758,438.422222 681.378788,429.555556 692.181818,417.733333 C643.568182,405.911111 608.458333,397.044444 586.852273,391.133333 C565.246212,385.222222 543.640152,377.476628 522.034091,367.896552 L603.056818,331.206897 C565.246212,323.868966 530.136364,320.2 497.727273,320.2 C465.318182,320.2 441.011364,323.155556 424.806818,329.066667 C426.537596,318.363164 429.238353,309.496498 432.909091,302.466667 C436.579828,295.436836 444.682101,283.614613 457.215909,267 C421.169999,276.822321 394.162424,285.688988 376.193182,293.6 C358.22394,301.511012 336.617879,314.046645 311.375,331.206897 L303.272727,267 C281.642257,320.196518 246.532409,370.440962 197.943182,417.733333 C141.227273,472.935484 76.4090909,507.544086 60.2045455,515.83871 C60.0214703,515.93242 59.8387582,516.02893 59.6564093,516.128238 L59.65641,516.12824 C55.757473,518.251622 54.318102,523.133677 56.441485,527.032614 C57.970214,529.839653 61.0167264,531.47431 64.2009151,531.196065 C185.729959,520.576466 295.128896,515.266667 392.397727,515.266667 C495.026515,515.266667 616.560606,521.177778 757,533 Z" id="path-3"></path>
    </defs>
    <g id="final" stroke="none" stroke-width="1" fill="none" fill-rule="evenodd">
        <g id="favicon" transform="translate(-55.000000, -267.000000)">
            <g id="yozh">
                <use fill="url(#linearGradient-1)" xlink:href="#path-3"></use>
                <use fill-opacity="0.83" fill="url(#radialGradient-2)" xlink:href="#path-3"></use>
            </g>
        </g>
    </g>
</svg>