<?xml version="1.0" encoding="UTF-8"?>
<svg width="736px" height="304px" viewBox="0 0 736 304" version="1.1" xmlns="http://www.w3.org/2000/svg" xmlns:xlink="http://www.w3.org/1999/xlink">
    <!-- Generator: Sketch 63.1 (92452) - https://sketch.com -->
    <title>yozh</title>
    <desc>Created with Sketch.</desc>
    <defs>
        <linearGradient x1="116.822349%" y1="49.0792414%" x2="-3.25120438%" y2="55.940786%" id="linearGradient-1">
            <stop stop-color="#EC4403" stop-opacity="0.137729458" offset="0%"></stop>
            <stop stop-color="#E22F2F" offset="100%"></stop>
        </linearGradient>
    </defs>
    <g id="final" stroke="none" stroke-width="1" fill="none" fill-rule="evenodd">
        <g id="favicon" transform="translate(-393.000000, -1813.000000)" stroke="url(#linearGradient-1)" stroke-width="14">
            <path d="M1102,2107 C1074.99242,2089.26667 1050.68561,2074.48889 1029.07955,2062.66667 C1007.47348,2050.84444 985.867424,2041.16245 964.261364,2033.62069 C980.465909,2029.34023 993.969697,2024.24444 1004.77273,2018.33333 C1015.57576,2012.42222 1026.37879,2003.55556 1037.18182,1991.73333 C988.568182,1979.91111 953.458333,1971.04444 931.852273,1965.13333 C910.246212,1959.22222 888.640152,1951.47663 867.034091,1941.89655 L948.056818,1905.2069 C910.246212,1897.86897 875.136364,1894.2 842.727273,1894.2 C810.318182,1894.2 786.011364,1897.15556 769.806818,1903.06667 C771.537596,1892.36316 774.238353,1883.4965 777.909091,1876.46667 C781.579828,1869.43684 789.682101,1857.61461 802.215909,1841 C766.169999,1850.82232 739.162424,1859.68899 721.193182,1867.6 C703.22394,1875.51101 681.617879,1888.04664 656.375,1905.2069 L648.272727,1841 C626.642257,1894.19652 591.532409,1944.44096 542.943182,1991.73333 C486.227273,2046.93548 421.409091,2081.54409 405.204545,2089.83871 C405.02147,2089.93242 404.838758,2090.02893 404.656409,2090.12824 L404.65641,2090.12824 C400.757473,2092.25162 399.318102,2097.13368 401.441485,2101.03261 C402.970214,2103.83965 406.016726,2105.47431 409.200915,2105.19607 C530.729959,2094.57647 640.128896,2089.26667 737.397727,2089.26667 C840.026515,2089.26667 961.560606,2095.17778 1102,2107 Z" id="yozh"></path>
        </g>
    </g>
</svg>