<svg width="688" height="261" xmlns="http://www.w3.org/2000/svg" xmlns:xlink="http://www.w3.org/1999/xlink"><defs><radialGradient cx="25.894%" cy="79.525%" fx="25.894%" fy="79.525%" r="84.12%" gradientTransform="matrix(0 -1 .87012 0 -.433 1.054)" id="c"><stop stop-color="#D20000" offset="0%"/><stop stop-color="#E51212" offset="67.086%"/><stop stop-color="#EE4E00" offset="100%"/></radialGradient><linearGradient x1="81.215%" y1="45.501%" x2="0%" y2="56.971%" id="a"><stop stop-color="#FF6C24" offset="0%"/><stop stop-color="#FFF" offset="100%"/></linearGradient><path d="M688 261c-26.477-17.4-50.307-31.9-71.489-43.5-21.181-11.6-42.363-21.1-63.545-28.5 15.886-4.2 29.125-9.2 39.716-15 10.59-5.8 21.182-14.5 31.773-26.1-47.66-11.6-82.08-20.3-103.262-26.1-21.182-5.8-42.363-13.4-63.545-22.8l79.432-36c-37.069-7.2-71.49-10.8-103.262-10.8-31.773 0-55.602 2.9-71.488 8.7 1.696-10.502 4.344-19.202 7.943-26.1 3.598-6.898 11.542-18.498 23.83-34.8-35.339 9.638-61.816 18.338-79.433 26.1-17.616 7.762-38.798 20.062-63.545 36.9l-7.943-63c-21.206 52.197-55.626 101.497-103.262 147.9-55.602 54.165-119.147 88.123-135.034 96.261-.205.106-.41.214-.615.327a7.876 7.876 0 004.481 14.747C127.916 248.812 235.184 243.6 330.557 243.6c100.613 0 219.761 5.8 357.443 17.4z" id="b"/></defs><g fill="none" fill-rule="evenodd"><use fill="url(#a)" xlink:href="#b"/><use fill-opacity=".83" fill="url(#c)" xlink:href="#b"/></g></svg>