<svg width="702" height="266" xmlns="http://www.w3.org/2000/svg"><defs><linearGradient x1="92.048%" y1="48.412%" x2="1.736%" y2="54.154%" id="a"><stop stop-color="#EC4403" stop-opacity=".201" offset="0%"/><stop stop-color="#ED4605" stop-opacity=".813" offset="18.186%"/><stop stop-color="#D20000" stop-opacity=".938" offset="51.949%"/><stop stop-color="#E22F2F" offset="100%"/></linearGradient></defs><path d="M1882 1066c-27.008-17.733-51.314-32.511-72.92-44.333-21.607-11.823-43.213-21.505-64.819-29.046 16.205-4.28 29.709-9.377 40.512-15.288 10.803-5.91 21.606-14.777 32.409-26.6-48.614-11.822-83.724-20.689-105.33-26.6-21.606-5.91-43.212-13.656-64.818-23.236l81.023-36.69c-37.81-7.338-72.92-11.007-105.33-11.007-32.409 0-56.716 2.956-72.92 8.867 1.73-10.704 4.431-19.57 8.102-26.6 3.67-7.03 11.773-18.852 24.307-35.467-36.046 9.822-63.054 18.689-81.023 26.6-17.97 7.911-39.575 20.447-64.818 37.607L1428.273 800c-21.63 53.197-56.74 103.441-105.33 150.733-56.716 55.202-121.534 89.811-137.738 98.106-.184.093-.366.19-.549.29a8.039 8.039 0 004.545 15.067c121.529-10.62 230.928-15.93 328.197-15.93 102.629 0 224.163 5.912 364.602 17.734z" transform="translate(-1180 -800)" fill="url(#a)" fill-rule="evenodd"/></svg>