<?xml version="1.0" encoding="UTF-8"?>
<svg width="331px" height="125px" viewBox="0 0 331 125" version="1.1" xmlns="http://www.w3.org/2000/svg" xmlns:xlink="http://www.w3.org/1999/xlink">
    <!-- Generator: Sketch 63.1 (92452) - https://sketch.com -->
    <title>yozh</title>
    <desc>Created with Sketch.</desc>
    <defs>
        <linearGradient x1="44.0615026%" y1="51.9105633%" x2="0%" y2="56.9200857%" id="linearGradient-1">
            <stop stop-color="#E51212" offset="0%"></stop>
            <stop stop-color="#FFFFFF" offset="100%"></stop>
        </linearGradient>
        <radialGradient cx="25.8937651%" cy="79.5253577%" fx="25.8937651%" fy="79.5253577%" r="75.4284377%" gradientTransform="translate(0.258938,0.795254),scale(0.372024,1.000000),rotate(-90.000000),scale(1.000000,2.330328),translate(-0.258938,-0.795254)" id="radialGradient-2">
            <stop stop-color="#D20000" offset="0%"></stop>
            <stop stop-color="#E51212" offset="67.0858904%"></stop>
            <stop stop-color="#EE4E00" offset="100%"></stop>
        </radialGradient>
        <path d="M331,125 C318.272727,116.666667 306.818182,109.722222 296.636364,104.166667 C286.454545,98.6111111 276.272727,94.0613027 266.090909,90.5172414 C273.727273,88.5057471 280.090909,86.1111111 285.181818,83.3333333 C290.272727,80.5555556 295.363636,76.3888889 300.454545,70.8333333 C277.545455,65.2777778 261,61.1111111 250.818182,58.3333333 C240.636364,55.5555556 230.454545,51.9157088 220.272727,47.4137931 L258.454545,30.1724138 C240.636364,26.7241379 224.090909,25 208.818182,25 C193.545455,25 182.090909,26.3888889 174.454545,29.1666667 C175.270171,24.1368254 176.542899,19.9701587 178.272727,16.6666667 C180.002556,13.3631746 183.820738,7.80761905 189.727273,0 C172.740701,4.61575228 160.013428,8.78241895 151.545455,12.5 C143.077481,16.2175811 132.895663,22.1083857 121,30.1724138 L117.181818,0 C106.988497,24.9983637 90.4430425,48.6094748 67.5454545,70.8333333 C40.8181818,96.7741935 10.2727273,113.037634 2.63636364,116.935484 C2.5756165,116.966491 2.51495419,116.998151 2.45437672,117.030462 L2.45438034,117.030469 C0.608036141,118.015291 -0.0903651504,120.310405 0.894457391,122.15675 C1.60893856,123.496258 3.05398452,124.279972 4.56640167,124.148212 C61.8180542,119.160515 113.356526,116.666667 159.181818,116.666667 C207.545455,116.666667 264.818182,119.444444 331,125 Z" id="path-3"></path>
    </defs>
    <g id="final" stroke="none" stroke-width="1" fill="none" fill-rule="evenodd">
        <mask id="mask-4" fill="white">
            <use xlink:href="#path-3"></use>
        </mask>
        <g id="yozh">
            <use fill="url(#linearGradient-1)" xlink:href="#path-3"></use>
            <use fill-opacity="0.83" fill="url(#radialGradient-2)" xlink:href="#path-3"></use>
        </g>
    </g>
</svg>