<svg version="1.0" xmlns="http://www.w3.org/2000/svg" width="2101.333" height="2101.333" viewBox="0 0 1576 1576"><path d="M879.5 494.7c-4.4 1.2-8.9 2.4-10 2.6-1.1.2-2.7.7-3.5 1-1.3.6-7.2 2.3-14 4.1-.8.3-1.5.5-1.5.6 0 .1-.7.3-1.5.5s-6.2 1.7-12 3.4-11.2 3.3-12 3.5c-4.6 1.2-31.4 9.7-32.8 10.5-.9.5-1.9.9-2.2.8-1.1-.2-33.1 10.7-36.2 12.4-1 .5-2.4.9-3.1.9-.8 0-2.8.7-4.6 1.6-1.7.9-3.7 1.7-4.4 1.8-.7.2-2.1.7-3.2 1.1-1.1.4-5.4 2.1-9.5 3.7-17.1 6.7-47.2 21.1-64.5 30.8-2.2 1.2-5.8 3.2-8 4.3-2.2 1.2-4.2 2.4-4.5 2.7-.3.3-1.8 1.2-3.5 2-1.6.8-4.1 2.2-5.5 3.1-5.1 3.3-8.5 5.3-9 5.4-.3 0-3 1.6-6 3.6-4.8 3.1-7.8 4.9-16.5 10.2-1.1.7-2.2 1.5-2.5 1.8-.4.5-3.4 2.4-11.8 7.4-3.1 1.9-7.7 4.9-8.2 5.5-.3.3-3.6 2.5-7.5 5-3.8 2.5-7.2 4.7-7.5 5-.3.3-1.9 1.5-3.7 2.7l-3.1 2.2-1.1-8.2c-1.6-12.3-2.2-16.8-2.6-20.7-.1-1.9-.6-5.3-.9-7.5-.3-2.2-.9-6.3-1.2-9-.3-2.8-.8-6.1-.9-7.5-.2-1.4-.7-4.8-1-7.5-.3-2.8-.8-6.4-1.1-8-.2-1.7-.7-5.3-1-8-.7-6.2-1.1-9.9-1.8-15-.3-2.2-.7-6-1-8.5-.5-4.3-.7-6.1-2.2-17-.3-2.5-.7-6.1-.9-8-.2-1.9-.7-5.1-1-7-.3-1.9-.6-5-.7-6.8-.1-1.7-.5-3.2-1-3.2-.4 0-.8.4-.8.9s-.8 2.6-1.7 4.7c-.9 2.2-1.7 4.1-1.8 4.4-.1.3-1.1 2.6-2.3 5.2-1.2 2.6-2.2 4.9-2.2 5.2 0 1.8-26 55-27.1 55.4-.5.2-.9 1.2-.9 2.2 0 1-.4 2.2-1 2.5-.5.3-1.7 2.3-2.7 4.3-.9 2-2.9 5.7-4.4 8.3-1.4 2.5-3.7 6.5-5.1 9-3.5 6.2-9 15.6-11 18.7-.9 1.5-2.7 4.6-3.9 6.9-1.3 2.4-2.6 4.3-3.1 4.3-.4 0-.8.7-.8 1.5s-.4 1.5-1 1.5c-.5 0-1 .5-1 1.1 0 1.3-27.9 43.3-29.1 43.7-.5.2-.9.8-.9 1.4 0 .5-.6 1.5-1.3 2.2-.6.8-1.9 2.4-2.7 3.6-.8 1.2-5.9 8.1-11.4 15.3-5.4 7.3-10.1 13.8-10.3 14.4-.3.7-.9 1-1.4.7-.5-.3-.9 0-.9.6 0 1-4.7 7.4-8.5 11.6-.5.6-2.3 2.9-4 5-3.1 3.9-19 23-21 25-.5.6-3.1 3.5-5.6 6.5-2.6 3-5.7 6.6-7 8-21.7 23.7-22.1 24.2-39.3 41.7-15.6 15.9-33.9 33.7-46.1 44.7-4.8 4.4-9.3 8.5-9.9 9-.6.6-6 5.3-12.1 10.5-6 5.2-11.5 9.9-12.1 10.5-1.1.9-2.7 2.3-13.4 11-2.5 2-5.4 4.4-6.5 5.3-1.1 1-5.2 4.2-9 7.2-3.9 3-7.5 5.9-8.2 6.5-1.8 1.5-3.3 2.6-7.8 6-2.2 1.6-4.4 3.3-5 3.8-.5.4-5.3 4-10.5 7.8-5.2 3.9-10.2 7.6-11 8.2-5.6 4.4-9 6.7-9.8 6.7-.6 0-1.2.4-1.4.8-.3.7-14.2 10.7-26.3 18.7-3.3 2.2-6.6 4.6-7.3 5.2-.7.7-1.7 1.3-2.2 1.3-.5 0-1.5.6-2.2 1.3-1.4 1.4-37.6 24.5-41.8 26.7-1.3.7-3.1 1.9-3.8 2.7-.7.7-2 1.3-2.8 1.3-.8 0-1.4.4-1.4.9s-.8 1.1-1.8 1.4c-2.1.7-7.1 3.7-9 5.4-.7.7-1.8 1.3-2.4 1.3-.6 0-1.9.6-2.7 1.4-.9.7-4.1 2.6-7.1 4.2s-5.7 3.1-6 3.5c-.3.3-3.4 2.1-7 4.1-3.6 1.9-9.2 5-12.5 6.9-3.3 1.8-10.4 5.6-15.7 8.3-10.5 5.6-13.5 7.7-16 11.7-5.5 8.7-1.3 21.3 8.3 25.3 3.3 1.4 13.5 1.4 23.4.1 5.5-.7 14.3-1.5 21.2-2 6.9-.4 17.4-1.4 22.4-2 2-.2 7.9-.7 13-1 5.2-.4 11-.9 12.9-1.1 1.9-.2 6.9-.6 11-.9 4.1-.3 10-.8 13-1.1 3-.3 8.7-.7 12.5-.9 3.9-.3 9.4-.7 12.4-1 2.9-.3 8.6-.7 12.5-1 7.9-.5 17.6-1.3 28.1-2.1 3.9-.3 9.9-.7 13.5-.9 3.6-.2 9.7-.6 13.5-.9 8.8-.7 19.2-1.4 31.5-2.1 15.4-1 18.1-1.2 18.7-1.9.3-.3 1.3-.1 2.3.4 1 .5 1.9.7 2.2.5.7-.7 10.3-1.4 41.3-3.1 6.1-.3 13.9-.7 17.5-.9 13.2-.8 27.8-1.5 38-2 5.8-.3 14.6-.7 19.5-1 21.2-1.2 89.9-4 122.8-4.9 6.5-.2 12.1-.6 12.3-.9.3-.3 1.8-.1 3.4.3 1.6.4 3.1.6 3.4.3.3-.3 6.7-.7 14.3-.9 7.6-.2 23.5-.6 35.3-.9 60.1-1.5 98.5-1.9 196-1.9 97.4.1 136.5.5 188 1.9 10.2.3 25.7.8 34.5 1 28 .8 46.7 1.4 59 2 6.6.3 19 .8 27.5 1.1 8.5.3 18.9.7 23 .9 4.1.2 13.1.7 20 1 24.1 1.1 31.6 1.5 39 1.9 4.1.3 12.7.7 19 1.1 6.3.3 14.7.8 18.5 1 3.9.3 11.3.7 16.5 1 14.9.8 25.9 1.4 34 2.1 4.1.3 10.7.7 14.5.9 3.9.3 10.2.6 14 .9 3.9.3 11.3.8 16.5 1.2 5.2.3 11.8.8 14.5 1 5.7.5 13.8 1.1 24 1.8 15.3 1 25.2 1.8 28.5 2.2 4.2.4 15.4 1.3 23 1.9 5.5.3 18.8 1.5 24.5 2 1.7.2 6.4.6 10.5.9 4.1.4 9.8.9 12.5 1.1 2.8.3 7.9.8 11.5 1 3.6.3 8.3.8 10.5 1 2.2.3 7.2.8 11 1.1 3.9.3 8.6.7 10.5 1 1.9.2 6.7.6 10.5.9 8.4.6 14.6 1.2 20 1.9 4 .6 10.3 1.2 22.5 2.2 3.6.2 8 .7 9.8.9 1.7.3 3.2.3 3.2.1 0-.5-10.1-7.2-35.5-23.4-31-19.8-39.7-25.2-40.6-25.2-.5 0-.9-.5-.9-1 0-.6-.4-1-1-1-.8 0-5.7-2.9-9.6-5.7-.5-.5-2.3-1.5-4-2.4-1.6-.9-11.2-6.5-21.4-12.6-10.2-6-20.5-12-23-13.4-2.5-1.3-5.1-3-5.8-3.7-.7-.6-1.9-1.2-2.5-1.2-.7 0-2.3-.9-3.7-2-1.4-1.1-3.3-2-4.2-2-1 0-1.8-.4-1.8-1 0-.5-1.7-1.7-3.7-2.5-2.1-.9-4.5-2.3-5.5-3.2-1-.9-1.8-1.3-1.8-.8 0 .4-.6.3-1.2-.3-4.7-3.7-48.6-25.4-75.8-37.4-12.2-5.3-48-19.7-50.5-20.3-.5-.1-2.3-.7-4-1.4-1.6-.6-3.7-1.4-4.5-1.7-1.3-.4-1.3-.6 0-1.4.8-.6 2.2-1 3.1-1 .9 0 5.3-1.2 9.9-2.6 4.5-1.4 8.7-2.7 9.4-2.8.6-.1 1.6-.4 2.1-.7.6-.4 2.4-1 4-1.4 3.4-1 3.4-.9 6-1.9 1.1-.4 4.5-1.7 7.5-2.8 17-6.3 47-20.1 47.8-22 .2-.4.8-.8 1.4-.8 2 0 26-16.6 31.9-22 .9-.8 4.7-4.2 8.4-7.5 8.1-7.2 26.5-25.6 26.5-26.6 0-.6-6.8-2.7-11-3.4-.8-.2-8-1.9-16-3.9s-21.9-5.5-31-7.7c-9.1-2.2-18.1-4.4-20-5-1.9-.6-4.2-1.1-5-1.3-.8-.1-2.4-.5-3.5-.9-1.1-.3-3.1-.8-4.5-1.1-1.4-.3-7-1.6-12.4-3.1-5.5-1.4-10.9-2.7-12-2.9-1.2-.2-3.3-.9-4.8-1.5-1.6-.6-2.8-.8-2.8-.6 0 .2-1.1 0-2.5-.5s-3.6-1.2-4.8-1.4c-1.2-.2-4.2-.9-6.7-1.5-2.5-.7-5.2-1.3-6-1.5-.8-.2-10.5-2.7-21.5-5.6-11-2.8-20.8-5.4-21.7-5.6-2.1-.5-2.4-.5-14.8-3.9-5.2-1.4-10.6-2.8-12-3.1-1.4-.2-3.2-.7-4-1-.8-.3-9.4-2.8-19-5.4-23.8-6.6-49.9-15.1-73.5-23.8-20-7.4-25.1-9.4-28.5-10.9-1.9-.8-4.4-1.9-5.5-2.3-1.1-.4-3.6-1.5-5.7-2.4-2-.9-3.9-1.6-4.2-1.6-.3 0-3.9-1.5-7.9-3.4-3.9-1.8-8.7-3.9-10.5-4.6-3-1.2-3.2-1.4-1.5-2.4 1-.6 2-1.1 2.3-1.1.3 0 2.1-.8 4-1.7 8.4-3.9 21.1-9.8 21.5-9.8.1 0 4.1-1.7 8.7-3.9 19.6-9.1 22.7-10.5 30.8-14.1 4.7-2.1 13.4-6.1 19.3-8.9 6-2.8 11-5.1 11.3-5.1.2 0 3.6-1.5 7.6-3.4 4-1.8 10-4.6 13.3-6.1 8.1-3.6 15.6-7.1 24-11 3.9-1.8 9-4.2 11.5-5.3 2.5-1.1 7.2-3.3 10.5-4.8s6.2-2.8 6.5-2.9c6.1-2.1 5.9-3.1-.6-4-2.2-.3-5-.7-6.4-1-2.1-.5-11.8-2.3-22-4-1.4-.3-3.6-.7-5-1-1.3-.2-4.2-.7-6.5-1-2.2-.3-6.5-1-9.5-1.5s-7.5-1.2-10-1.6c-2.5-.3-5.6-.8-7-1-1.4-.2-4.5-.6-7-.9-2.5-.3-5.6-.7-7-.9-8.5-1.2-12.5-1.7-25.5-3.1-2.7-.3-6.4-.8-8.2-1-1.8-.3-6.1-.7-9.5-1-3.5-.3-8.1-.7-10.3-.9-43.3-4.3-116.9-5.3-156.5-2.2-3.6.3-9.4.8-13 1-3.6.3-8.7.8-11.5 1.2-2.7.3-6.6.8-8.5.9-1.9.2-3.5.4-3.5.5 0 .1-.9.3-2 .4-18.7 2.5-45.5 8.5-54 12.1-1.9.7-3.6 1.1-3.8.7-.6-1.2 0-5.3 2.3-15.2 1.2-5.2 2.2-10 2.4-10.7.1-.7.5-1.6.9-1.9.4-.4.7-1.6.7-2.6 0-2.1 6.2-18.9 8.5-22.9.8-1.4 1.2-2.8.9-3.1-.2-.3.2-1.1 1.1-1.8.8-.7 1.5-1.7 1.5-2.2 0-1.3 12.1-20.4 19.7-31.3 3.5-5 6.6-9.8 7-10.8.3-.9.9-1.7 1.3-1.7s2.7-2.9 5-6.5 4.7-6.5 5.3-6.5c.6 0 .8-.3.4-.6-.3-.3 2.5-4.6 6.3-9.5 3.8-4.8 6.6-9 6.2-9.2-.4-.2-4.3.7-8.7 2z"/></svg>