<?xml version="1.0" standalone="no"?>
<!DOCTYPE svg PUBLIC "-//W3C//DTD SVG 20010904//EN"
 "http://www.w3.org/TR/2001/REC-SVG-20010904/DTD/svg10.dtd">
<svg version="1.0" xmlns="http://www.w3.org/2000/svg"
 width="700.000000pt" height="700.000000pt" viewBox="0 0 700.000000 700.000000"
 preserveAspectRatio="xMidYMid meet">
<metadata>
Created by potrace 1.11, written by Peter Selinger 2001-2013
</metadata>
<g transform="translate(0.000000,700.000000) scale(0.100000,-0.100000)"
fill="#000000" stroke="none">
<path d="M2590 4513 c-194 -411 -446 -762 -804 -1118 -330 -329 -741 -631
-1164 -857 -126 -68 -148 -103 -96 -155 24 -24 30 -25 92 -19 432 41 1249 92
1877 118 380 15 1487 15 1880 -1 579 -23 1190 -57 1700 -96 105 -8 255 -19
335 -25 80 -6 153 -12 163 -14 34 -8 4 14 -166 122 -331 210 -628 368 -875
466 l-121 48 115 39 c134 45 235 94 319 154 66 48 190 163 183 170 -3 3 -209
56 -459 119 -250 63 -507 130 -571 150 -130 40 -428 155 -428 165 0 3 153 75
340 160 187 85 338 156 336 159 -8 7 -86 21 -271 47 -279 39 -430 48 -717 42
-278 -6 -372 -17 -530 -63 -15 -4 -15 0 -1 63 21 97 79 210 177 346 47 64 80
117 74 117 -5 0 -58 -14 -117 -31 -486 -140 -660 -215 -999 -431 -67 -43 -126
-78 -130 -78 -4 0 -20 105 -36 233 -43 352 -30 331 -106 170z"/>
</g>
</svg>
