<?xml version="1.0" standalone="no"?>
<!DOCTYPE svg PUBLIC "-//W3C//DTD SVG 20010904//EN"
 "http://www.w3.org/TR/2001/REC-SVG-20010904/DTD/svg10.dtd">
<svg version="1.0" xmlns="http://www.w3.org/2000/svg"
 width="700.000000pt" height="700.000000pt" viewBox="0 0 700.000000 700.000000"
 preserveAspectRatio="xMidYMid meet">
<metadata>
Created by potrace 1.11, written by Peter Selinger 2001-2013
</metadata>
<g transform="translate(0.000000,700.000000) scale(0.100000,-0.100000)"
fill="#000000" stroke="none">
<path d="M3855 4601 c-504 -147 -688 -231 -1087 -494 l-26 -18 -6 38 c-3 21
-17 133 -31 248 -35 287 -30 274 -69 185 -226 -516 -625 -1028 -1129 -1448
-241 -202 -631 -463 -868 -583 -74 -37 -89 -53 -89 -94 0 -26 6 -39 25 -51 22
-15 44 -14 282 5 528 43 757 57 1468 93 341 18 1856 17 2220 0 456 -22 819
-41 1060 -57 336 -23 886 -64 918 -70 15 -2 27 -1 27 3 0 4 -69 50 -153 103
-386 244 -660 389 -935 495 l-74 28 100 31 c138 44 277 114 364 184 77 62 155
138 147 145 -2 2 -177 47 -389 100 -561 139 -790 208 -995 301 l-60 27 90 42
c50 23 204 94 342 156 139 62 251 115 250 116 -6 7 -302 54 -442 70 -215 26
-714 27 -868 1 -60 -10 -130 -25 -155 -32 -25 -8 -48 -12 -51 -10 -7 8 19 116
42 170 20 50 106 187 187 298 23 31 40 57 38 56 -2 0 -61 -17 -133 -38z"/>
</g>
</svg>
