<svg version="1.0" xmlns="http://www.w3.org/2000/svg" width="2602.667" height="2602.667" viewBox="0 0 1952 1952"><path d="M1112.5 609.4c-2.2.7-4.3 1.3-4.7 1.4-.4.2-1.3.4-2 .7-.7.2-7.6 2.1-15.3 4.1-7.7 2-14.7 4-15.6 4.5-.8.4-2.6 1-4 1.2-1.3.2-3.1.6-3.9 1-.8.3-8.2 2.4-16.5 4.6-8.2 2.3-15.9 4.5-17 5-1.1.5-5.1 1.8-9 2.9-17.3 5.1-28.2 8.4-30 9.3-1.1.4-6.5 2.2-12 3.9-5.5 1.7-10.7 3.4-11.5 3.7-.8.3-1.9.7-2.5.8-.5.2-4 1.4-7.7 2.8-3.8 1.5-6.8 2.4-6.8 2 0-.3-.6-.1-1.2.5-.7.5-4.7 2.1-8.8 3.5-8.2 2.7-34.6 12.9-39.7 15.2-1.7.8-3.4 1.5-3.7 1.5-.3 0-3.6 1.4-7.3 3.2-3.8 1.7-7 3.2-7.3 3.3-3.1.9-45.5 21.9-47.5 23.5-.5.4-4.1 2.4-8 4.4-3.8 2-7.7 4.1-8.5 4.6-7 4.3-19.1 11-19.9 11-.6 0-1.1.3-1.1.8 0 .4-1.7 1.6-3.7 2.7-2.1 1.1-6.1 3.4-9 5.2-2.9 1.8-5.7 3.3-6.3 3.3-.5 0-1 .4-1 1 0 .5-.7 1-1.5 1s-1.5.4-1.5.9-.8 1.1-1.7 1.5c-1.7.5-7.3 3.8-11 6.3-5.6 3.9-20.4 13.3-20.9 13.3-.3 0-1 .5-1.7 1-.7.6-6.6 4.6-13.2 9-6.6 4.3-12.9 8.6-14 9.5-2.1 1.6-3.5 1.9-3.6.7 0-.4-.2-2.1-.5-3.7-1-7.8-2.4-18.4-2.9-22.5-.3-2.5-.7-5.4-.9-6.5-.2-1.1-.7-4.9-1-8.5-.4-3.6-.9-7.7-1.1-9-.3-1.4-.7-4.5-1-7-.2-2.5-.7-6.1-1-8-1.1-7.1-1.6-11.6-2.1-17-.3-3-.7-6.9-1-8.5-.3-1.7-.8-5-1-7.5-.3-2.5-.7-5.6-.9-7-.4-2.6-1-7.4-1.9-15-.3-2.5-.8-5.9-1-7.5-.3-1.7-.8-5.6-1.1-8.8-.4-3.2-.8-6.8-1.1-8-.2-1.2-.7-4.7-1-7.7-1.2-12-2.5-22.4-3-22.9-.2-.2-.9.9-1.5 2.5-2.5 6.2-3.7 9.1-6.3 14.7-1.4 3.1-2.6 6.4-2.6 7.2 0 .8-.4 1.5-1 1.5-.5 0-1 .5-1 1.1 0 1.8-8.5 20-21.3 45.4-12.4 24.8-12 23.9-12.6 24.5-.3.3-1.7 2.7-3.1 5.5-4.3 8.5-8.5 16-9.2 16.5-.3.3-.8 1.2-1 2-.2.8-.6 1.9-1.1 2.5-2 2.7-5.4 8.4-7.2 12-1.1 2.2-2.3 4.2-2.6 4.5-.7.6-7.1 11.1-10 16.5-1.2 2.2-2.5 4.2-2.8 4.5-.4.3-1.8 2.3-3.1 4.5-6.4 10.7-34.2 52.1-35.9 53.5-.3.3-1 1.2-1.6 2.1-.5.9-1.9 2.9-3 4.5-2.3 3.4-28.3 37.9-30.7 40.9-.9 1.1-4.7 5.8-8.4 10.5s-8.3 10.3-10.1 12.5c-1.9 2.2-3.7 4.4-4.2 5-1.2 1.7-12.4 14.9-14 16.7-.9.9-2.7 3.1-4.1 4.8-1.4 1.8-3.8 4.6-5.5 6.4-1.6 1.8-5.2 5.8-8 9-6.9 7.9-18.2 20.2-23.2 25.5-2.4 2.4-4.3 4.5-4.3 4.6 0 .3-14.1 15-28.9 30-16.2 16.4-41.3 40.5-42.2 40.5-.5 0-.9.7-.9 1.5s-.4 1.5-.9 1.5c-.4 0-1.9 1-3.3 2.2-1.4 1.3-6.2 5.7-10.7 9.8-4.5 4.1-9.5 8.5-10.9 9.8-1.5 1.3-4 3.6-5.7 5.1-9.4 8.5-49.1 41.4-59.4 49.1-1.8 1.4-4.9 4-7 5.7-2 1.8-4.2 3.3-4.8 3.3-.7 0-1.3.3-1.3.8 0 .4-3.7 3.4-8.1 6.7-4.5 3.3-9 6.8-10 7.8-1.1.9-2.1 1.7-2.4 1.7-.3 0-3.6 2.4-7.4 5.2-8 6.1-8.8 6.7-20.1 14.7-4.7 3.3-9.7 7-11.1 8.2-1.5 1.1-3.5 2.6-4.6 3.2-1.1.7-4 2.5-6.3 4.2-2.4 1.6-5.3 3.7-6.6 4.5-1.2.8-9.6 6.4-18.5 12.5-9 6-16.8 11.2-17.4 11.5-1.1.6-6.5 4.1-8 5.3-1.4 1.1-33.5 21.1-37.5 23.3-1.8 1.1-4 2.4-4.9 2.9-.9.6-3.8 2.4-6.6 4-2.7 1.7-5.9 3.6-7 4.2-1.1.7-2.8 1.6-3.7 1.9-1 .3-1.8 1-1.8 1.5s-.6.9-1.4.9c-.7 0-1.9.7-2.6 1.5-.7.8-1.6 1.3-2 1-.5-.3-1.1-.1-1.5.4-.3.6-4 2.9-8.3 5.3-4.2 2.3-9.3 5.2-11.3 6.3-16.4 9.3-29.9 16.5-30.8 16.5-.6 0-1.1.3-1.1.7 0 .5-2.9 2.1-6.5 3.8-3.5 1.6-6.5 3.3-6.5 3.7 0 .5-.9.8-2 .8s-2 .4-2 .9-1 1.1-2.3 1.5c-3 .7-8.9 6.3-10.6 10.1-2 4.2-2.2 5.4-2.2 10.8 0 8.9 6.3 17.6 14.9 20.5 3.4 1.2 15 1 28.2-.4 4.1-.4 9.6-.8 12.2-.8 2.7-.1 4.8-.3 4.8-.6s1.5-.5 3.3-.6c3.9-.1 19.4-1.2 25.7-1.9 2.5-.2 7.9-.7 12-1 4.1-.3 10-.8 13-1 3-.3 8.4-.7 12-1 7-.5 19.1-1.5 25.5-2 2.2-.2 8.1-.7 13-1 5-.4 10.6-.8 12.5-1 2.9-.3 12.4-1 26.7-1.9 1.2-.1 2.5-.5 2.9-.9.4-.3 1.4-.2 2.4.3s1.9.7 2.2.5c.4-.4 7.5-1.2 18.8-2 3.6-.2 10.8-.7 16-1.1 5.2-.4 12.1-.8 15.2-.8 3.2-.1 5.8-.3 5.8-.6s2.1-.5 4.8-.6c4.7-.1 23.8-1.2 32.2-1.9 2.5-.2 9.2-.7 15-1 5.8-.4 12.8-.8 15.5-1 2.8-.2 10-.6 16-.9 6.1-.4 13.5-.9 16.5-1.1 3-.3 10-.7 15.5-1 5.5-.3 13.6-.7 18-1 4.4-.2 12.7-.7 18.5-1 5.8-.3 14.1-.8 18.5-1 25.8-1.5 36-2.1 56.5-3 5.2-.2 14.7-.7 21-1 6.3-.4 15.6-.8 20.6-.9 5-.2 9.6-.6 10.2-1 .7-.4 1.2-.2 1.2.4 0 .6.5.8 1 .5.6-.4 5.4-.8 10.8-1.1 8.8-.3 15.4-.6 51.2-1.9 20.5-.8 43.2-1.6 55.5-2 6.6-.2 21.2-.6 32.5-1 25.3-.7 53.1-1.4 84.2-2 13.1-.2 24.2-.6 24.8-1 .5-.3 1-.2 1 .4 0 .6 1.1.7 2.8.2 3.4-1 245-1.1 250.3-.1 2.1.4 3.9.4 3.9-.1s1-.5 2.3 0c1.2.5 3.1.5 4.2.1s2.4-.5 2.9-.2c.6.3 10 .7 21 .8 24.1.4 56.8 1.1 83 1.9 10.5.4 25.9.8 34.1 1 8.3.3 22.4.7 31.5 1 9.1.3 21 .8 26.5 1 5.5.2 17.7.6 27 1 9.4.4 22.5.8 29.2.9 6.8 0 12.3.3 12.3.6s3 .6 6.8.6c3.7 0 12.8.4 20.2.8 7.4.4 18.9.9 25.5 1.1 6.6.2 12 .5 12 .5 0 .1 3.4.3 7.5.5s12.7.6 19 1c6.3.4 15.1.8 19.5 1 12.3.5 31.8 1.6 39.3 2 3.7.3 11.4.7 17.2 1 16.1.8 24 1.4 25 2 .5.3 1.1.1 1.5-.5.4-.6 1.1-.8 1.6-.4.5.3 4.9.8 9.7 1.1 9.3.5 15.7 1 15.7 1.2 0 .1 5.9.4 13 .6 7.2.3 15.3.7 18 .9 9.2.7 23.1 1.7 31.1 2.1 8.3.5 19 1.2 31.4 2 4.1.3 11.3.7 16 1 4.7.3 11.2.8 14.5 1.1 3.3.3 8.7.7 12 .9 12.2.8 24.2 1.5 31 2.1 3.9.3 9.9.7 13.5.9 3.6.3 9.2.7 12.5 1 3.3.3 9.4.7 13.5 1 4.1.2 10.6.7 14.3 1 3.8.3 10.1.8 14 1 4 .2 7.2.5 7.2.6 0 0 2.5.2 5.5.4 3 .1 8.4.5 12 .9 3.6.3 10.1.8 14.5 1.1 4.4.3 10.5.8 13.5 1.1 3 .3 8.4.7 12 .9 3.6.2 9 .6 12 .9 3 .3 9.1.8 13.5 1.2 4.4.3 9.6.7 11.5.9 3.2.3 6.7.6 25.5 2 3.3.3 8.9.7 12.5 1 3.6.3 8.8.8 11.5.9 6.2.5 8.1 2-20-15.9-7.7-4.8-18.4-11.7-23.7-15.2-5.4-3.5-10-6.3-10.3-6.3-.3 0-1.1-.5-1.8-1-.7-.6-6.4-4.3-12.7-8.2-6.3-3.9-15.5-9.6-20.5-12.8-4.9-3.1-9.7-5.9-10.5-6.3-.8-.4-3.3-1.8-5.5-3.2-2.2-1.4-5.6-3.4-7.5-4.5-1.9-1.1-4.4-2.6-5.5-3.3-4-2.5-10.3-6.3-22-13-17.2-10-18.1-10.5-22.2-12.8-2.1-1.2-8.7-4.9-14.8-8.4-6-3.4-12-6.5-13.2-6.9-1.3-.4-2.3-1.2-2.3-1.7s-.4-.9-1-.9c-.5 0-3.2-1.3-6-3-2.7-1.6-5-2.7-5-2.4 0 .3-1.2-.3-2.7-1.4-1.6-1.1-7.1-4.1-12.3-6.7-21.9-11-37.9-18.9-43.5-21.5-3.3-1.5-9.4-4.3-13.5-6.3-8.2-3.8-14.1-6.3-15.3-6.5-.4-.1-2-.8-3.5-1.6-4.2-2.2-12.6-5.9-24.2-10.5-11.1-4.5-12.4-5-18.2-7.5-2-.9-3.9-1.6-4.3-1.6-.4 0-2.1-.6-3.8-1.4-1.8-.8-5.9-2.4-9.2-3.5-3.3-1.2-6.7-2.4-7.5-2.8-.8-.3-1.9-.7-2.5-.9-.5-.1-3.5-1.1-6.5-2.2-5.5-2-5.5-2-2.7-3.1 1.5-.6 3.8-1.3 5-1.5 9.4-2 49.1-15 61.7-20.3.8-.3 1.7-.7 2-.8 1.4-.5 6.7-2.7 8.5-3.5 6.2-2.9 11.1-4.8 11.6-4.7.4.1 1.5-.6 2.5-1.5 1.1-.9 2.2-1.7 2.7-1.7 1.8-.2 18.1-8.9 27.7-14.9 9.7-6.1 28.8-19.8 35.3-25.6 1.6-1.4 4.7-4 7-5.8 2.2-1.8 11.2-10.3 19.8-18.9l15.8-15.7-4.2-1.1c-6.7-1.8-45-11.1-47.4-11.6-1.3-.2-2.6-.6-3.1-.9-.5-.3-2.4-.8-4.3-1.1-1.9-.3-5.2-1-7.4-1.6-2.2-.5-4.9-1.2-6-1.4-1.1-.3-7.4-1.9-14-3.5-6.6-1.7-12.9-3.3-14-3.5-4.7-.9-16.1-3.7-17.5-4.2-.8-.3-2.3-.8-3.3-1-1-.2-7.3-1.7-14-3.4s-12.9-3.2-13.7-3.4c-2-.4-17.5-4.4-22-5.6-1.9-.5-4.4-1.1-5.5-1.3-1.9-.3-32.7-8.1-44.5-11.2-3-.9-6.2-1.7-7-1.9-4.9-1.2-18.7-4.7-20-5-.8-.2-5.5-1.5-10.5-2.8-4.9-1.3-9.4-2.5-10-2.7-2.3-.7-12.8-3.4-13.5-3.5-3.3-.6-7.8-1.9-8.7-2.7-.7-.6-1.3-.8-1.3-.5 0 .3-2.4-.1-5.2-.9-2.9-.8-6-1.7-6.8-1.9-.8-.2-4.6-1.3-8.5-2.5-3.8-1.2-9.2-2.7-12-3.5-2.7-.7-11.3-3.4-19-5.9-7.7-2.6-15-4.8-16.1-5-1.2-.2-3.6-1.1-5.3-2-1.7-.9-3.4-1.7-3.8-1.7-1.2-.2-3.5-1-6.1-2-1.3-.5-3.2-.9-4.2-.9-1.1 0-2-.4-2-1 0-.5-.3-.9-.7-.8-1.3.4-27.4-9.1-36.8-13.4-1.2-.5-2.7-1-3.5-1.2-.8-.1-2.8-.8-4.5-1.5-5.9-2.5-10-4.3-11.7-5.2-1-.5-2.2-.9-2.8-.9-.5 0-3.9-1.4-7.5-3-3.6-1.7-6.8-3-7-3-.2 0-3.3-1.3-6.7-2.8-3.5-1.5-7.4-3.3-8.8-3.9-2.4-1.1-2.2-1.2 4.5-4.4 3.9-1.8 7.2-3.3 7.5-3.4.3-.1 2.5-1.1 5-2.2 2.5-1.2 5.5-2.4 6.8-2.8 1.2-.3 2.2-1.1 2.2-1.6s.6-.9 1.4-.9c.7 0 9.8-3.9 20.2-8.6 10.4-4.7 19.5-8.6 20.2-8.7.6 0 1.2-.4 1.2-.9 0-.4.4-.8.9-.8s3.5-1.2 6.7-2.7c3.3-1.5 6.1-2.8 6.4-2.8.6-.1 2.6-1 20-8.9 6.9-3.2 13.8-6.4 15.4-7.2 1.6-.8 3.5-1.4 4.1-1.4.7 0 1.8-.7 2.5-1.5.7-.9 1.5-1.3 1.7-1.1.3.2 2.6-.6 5.1-1.9 2.6-1.3 5.9-2.7 7.5-3 1.5-.4 2.7-1.1 2.7-1.6s.5-.9 1.1-.9c.5 0 3.4-1.1 6.2-2.4 2.9-1.3 7.5-3.3 10.2-4.6 2.8-1.2 7.5-3.3 10.5-4.7 3-1.4 7.1-3.2 9-4 1.9-.9 6.7-3.1 10.7-4.9 3.9-1.9 7.4-3.4 7.7-3.4.4 0 3.8-1.6 7.7-3.5 3.9-1.9 7.7-3.5 8.5-3.5.8 0 1.4-.4 1.4-.9s1.4-1.1 3-1.5c1.7-.3 3-.9 3-1.4 0-.7-6.6-2.4-15-3.8-1.9-.3-5.7-1-8.5-1.5-8.7-1.6-10.9-1.9-14-2.3-1.6-.2-4.1-.6-5.5-.9-1.4-.4-3.8-.9-5.5-1.1-1.6-.3-3.9-.7-5.1-1-1.2-.2-4.5-.7-7.5-1.1-3-.3-6.7-.8-8.2-1.1-1.6-.3-3.8-.7-5-.9-1.2-.2-3.8-.6-5.7-.9-1.9-.3-5.4-.8-7.7-1.1-2.4-.3-7.5-1-11.5-1.5-4-.6-9.3-1.3-11.8-1.6-2.5-.2-5.8-.6-7.5-.9-8.4-1.1-12.6-1.7-16.6-2-2.4-.2-5.5-.6-6.9-.9-1.4-.3-5.6-.8-9.5-1.1-10-.8-17.1-1.5-24-2.1-15.2-1.3-37.4-2.8-61.5-4-16.7-.9-95.2-.9-111.5 0-17.8.9-25.3 1.4-32.5 2.1-3.6.4-9.2.8-12.5 1-3.3.2-6 .5-6 .6 0 0-1.1.2-2.5.4-1.4.1-5.6.5-9.5.9-3.8.4-7.7.9-8.5 1.1-.8.2-3.3.6-5.5 1-2.2.3-5.3.8-7 1.1-1.6.3-4.3.7-6 .9-1.6.2-4.1.6-5.5.9-1.4.4-3.8.9-5.5 1.2-5.1.9-23 5.1-23 5.4 0 .1-.7.3-1.5.5-.8.1-3.5.8-6 1.5s-4.5 1.1-4.5 1.1c0-.1-1.7.5-3.7 1.3-5.5 2.3-6 2.1-5.3-2.2.6-3.8 1.5-9 1.9-10.7.1-.6.9-3.7 1.6-7 1.6-7 1.3-5.9 2.9-11.5 4.5-15.9 9.8-29.4 15.7-40.5 3.5-6.6 18.1-30.4 19.3-31.5.3-.3 3.9-5.5 8-11.5 4.1-6.1 7.7-11.2 8.1-11.5.3-.3 1.6-2.2 3-4.2 1.4-2.1 2.8-3.8 3.3-3.8.4 0 .7-.6.7-1.3 0-.7.8-2.2 1.8-3.3.9-1 3-3.7 4.7-5.9 1.6-2.2 3.5-4.6 4.2-5.3.7-.7 1.3-1.7 1.3-2.1 0-.5 1.1-2.1 2.5-3.7 4-4.6 4.5-5.3 4.5-6.4 0-.5.4-1 .9-1 .9 0 4.5-5 3.9-5.5-.2-.1-2.1.3-4.3.9z"/></svg>