<svg width="2632" height="1525" xmlns="http://www.w3.org/2000/svg" xmlns:xlink="http://www.w3.org/1999/xlink"><defs><radialGradient cx="50.185%" cy="50%" fx="50.185%" fy="50%" r="50%" gradientTransform="matrix(-.00135 1 -.99683 -.00633 1 .001)" id="a"><stop stop-color="#02F981" offset="0%"/><stop stop-color="#4BDA95" offset="71.478%"/><stop stop-color="#CEF5E2" offset="71.674%"/><stop stop-color="#FFF" offset="100%"/></radialGradient><radialGradient cx="50.185%" cy="50%" fx="50.185%" fy="50%" r="50%" gradientTransform="matrix(0 1 -1.00213 0 1.003 -.002)" id="b"><stop stop-color="#00FF83" offset="0%"/><stop stop-color="#02F780" offset="3.683%"/><stop stop-color="#0FF888" offset="3.786%"/><stop stop-color="#0FF888" offset="6.738%"/><stop stop-color="#0EF585" offset="6.742%"/><stop stop-color="#0EF585" offset="9.055%"/><stop stop-color="#12F788" offset="9.11%"/><stop stop-color="#16F98B" offset="13.124%"/><stop stop-color="#0EF485" offset="13.157%"/><stop stop-color="#0CF886" offset="14.609%"/><stop stop-color="#16F68A" offset="14.699%"/><stop stop-color="#0FF686" offset="14.749%"/><stop stop-color="#0CF383" offset="16.281%"/><stop stop-color="#0FF686" offset="16.386%"/><stop stop-color="#12F587" offset="17.903%"/><stop stop-color="#0FF686" offset="17.933%"/><stop stop-color="#0DF283" offset="19.605%"/><stop stop-color="#0FF686" offset="19.67%"/><stop stop-color="#0FF686" offset="21.003%"/><stop stop-color="#12F386" offset="21.075%"/><stop stop-color="#12F587" offset="21.16%"/><stop stop-color="#16F288" offset="21.931%"/><stop stop-color="#12F487" offset="22.027%"/><stop stop-color="#12EF84" offset="23.758%"/><stop stop-color="#13F487" offset="23.768%"/><stop stop-color="#14F487" offset="24.714%"/><stop stop-color="#14F488" offset="25.488%"/><stop stop-color="#12EF84" offset="25.546%"/><stop stop-color="#12EF84" offset="28.182%"/><stop stop-color="#14F186" offset="28.216%"/><stop stop-color="#19F188" offset="32.572%"/><stop stop-color="#1CEE88" offset="32.627%"/><stop stop-color="#1CEF89" offset="32.637%"/><stop stop-color="#1FF28C" offset="38.778%"/><stop stop-color="#1EEF8A" offset="38.807%"/><stop stop-color="#1EEF8A" offset="41.181%"/><stop stop-color="#20F38D" offset="41.185%"/><stop stop-color="#1FEF8A" offset="46.379%"/><stop stop-color="#20F38D" offset="46.462%"/><stop stop-color="#25F28F" offset="51.663%"/><stop stop-color="#29E98C" offset="51.718%"/><stop stop-color="#29E98C" offset="56.753%"/><stop stop-color="#1EE585" offset="56.783%"/><stop stop-color="#33DE8B" offset="62.805%"/><stop stop-color="#32DB89" offset="62.818%"/><stop stop-color="#32DB89" offset="68.81%"/><stop stop-color="#37DF8E" offset="68.899%"/><stop stop-color="#34D788" offset="73.533%"/><stop stop-color="#38DA8C" offset="73.626%"/><stop stop-color="#41D98F" offset="83.839%"/><stop stop-color="#46DE94" offset="83.889%"/><stop stop-color="#46DE94" offset="87.425%"/><stop stop-color="#43D88F" offset="87.479%"/><stop stop-color="#43D88F" offset="90.314%"/><stop stop-color="#4BDE97" offset="90.383%"/><stop stop-color="#4DD895" offset="100%"/></radialGradient><linearGradient x1="97.57%" y1="-10.3%" x2="68.128%" y2="185.11%" id="d"><stop stop-color="#FFE493" offset="0%"/><stop stop-color="#BC9949" offset="100%"/></linearGradient><circle id="c" cx="12.969" cy="12.252" r="12"/><linearGradient x1="50%" y1="-15.543%" x2="91.324%" y2="38.152%" id="g"><stop stop-color="#BCEBFF" offset="0%"/><stop stop-color="#0072E7" offset="100%"/></linearGradient><ellipse id="f" cx="15.502" cy="15.257" rx="15.309" ry="15.105"/><linearGradient x1="62.415%" y1="-40.304%" x2="75.019%" y2="50%" id="h"><stop stop-color="#E6F8FF" offset="0%"/><stop stop-color="#1998FF" offset="100%"/></linearGradient><linearGradient x1="63.182%" y1="-13.416%" x2="57.758%" y2="44.912%" id="j"><stop stop-color="#C9EAF9" offset="0%"/><stop stop-color="#4EACF9" offset="100%"/></linearGradient><path d="M7.226 32.546c7.215 0 13.513-6.923 13.513-18.24 0-11.318-6.733-20.368-13.948-20.368-7.215 0-12.588 9.257-12.588 20.574 0 11.318 5.809 18.034 13.023 18.034z" id="k"/><filter x="-32%" y="-22%" width="164.1%" height="144%" filterUnits="objectBoundingBox" id="l"><feGaussianBlur stdDeviation="2.5" in="SourceAlpha" result="shadowBlurInner1"/><feOffset dx="12" dy="5" in="shadowBlurInner1" result="shadowOffsetInner1"/><feComposite in="shadowOffsetInner1" in2="SourceAlpha" operator="arithmetic" k2="-1" k3="1" result="shadowInnerInner1"/><feColorMatrix values="0 0 0 0 0 0 0 0 0 0 0 0 0 0 0 0 0 0 0.0542777535 0" in="shadowInnerInner1"/></filter><linearGradient x1="50%" y1="-75.768%" x2="61.614%" y2="129.077%" id="m"><stop stop-color="#71C9FF" offset="0%"/><stop stop-color="#0369BC" offset="100%"/></linearGradient><linearGradient x1="97.721%" y1="0%" x2="-18.38%" y2="238.895%" id="n"><stop stop-color="#076BBD" offset="0%"/><stop stop-color="#53BCFB" offset="100%"/></linearGradient><linearGradient x1="33.241%" y1="-124.446%" x2="54.459%" y2="110.885%" id="o"><stop stop-color="#97D5FA" offset="0%"/><stop stop-color="#0167B9" offset="100%"/></linearGradient><linearGradient x1="-28.488%" y1="50%" x2="246.43%" y2="50%" id="p"><stop stop-color="#1792DC" offset="0%"/><stop stop-color="#B3E4F6" offset="100%"/></linearGradient><linearGradient x1="217.726%" y1="0%" x2="4.195%" y2="50%" id="q"><stop stop-color="#06B2F3" offset="0%"/><stop stop-color="#0680E3" offset="100%"/></linearGradient><ellipse id="r" cx="13.652" cy="27.151" rx="1.633" ry="2.041"/><filter x="-30.6%" y="-24.5%" width="161.2%" height="149%" filterUnits="objectBoundingBox" id="s"><feGaussianBlur stdDeviation=".5" in="SourceAlpha" result="shadowBlurInner1"/><feOffset dx="1" dy="-1" in="shadowBlurInner1" result="shadowOffsetInner1"/><feComposite in="shadowOffsetInner1" in2="SourceAlpha" operator="arithmetic" k2="-1" k3="1" result="shadowInnerInner1"/><feColorMatrix values="0 0 0 0 0 0 0 0 0 0 0 0 0 0 0 0 0 0 0.133932474 0" in="shadowInnerInner1"/></filter><ellipse id="t" cx="13.035" cy="13.036" rx="13.014" ry="13.033"/><linearGradient x1="94.655%" y1="55.111%" x2="-23.961%" y2="52.671%" id="u"><stop stop-color="#EF828C" offset="0%"/><stop stop-color="#EF2933" offset="42.304%"/><stop stop-color="#EF2933" offset="100%"/><stop stop-color="#EF2933" offset="100%"/></linearGradient><linearGradient x1="116.243%" y1="43.83%" x2="-17.06%" y2="62.481%" id="w"><stop stop-color="#F47B85" offset="0%"/><stop stop-color="#B52229" offset="47.357%"/><stop stop-color="#420B0E" offset="100%"/></linearGradient><path d="M-.603 14.252c3.099 1.629 5.586 2.861 8.591 5.024 4.306 3.1 11.169.799 20.589-6.902L25.955-.398.679-1.473C-3.02 7.48-3.448 12.723-.603 14.252z" id="x"/><filter x="-16.1%" y="-22.6%" width="132.2%" height="145.3%" filterUnits="objectBoundingBox" id="y"><feGaussianBlur stdDeviation="2" in="SourceAlpha" result="shadowBlurInner1"/><feOffset dx="6" dy="4" in="shadowBlurInner1" result="shadowOffsetInner1"/><feComposite in="shadowOffsetInner1" in2="SourceAlpha" operator="arithmetic" k2="-1" k3="1" result="shadowInnerInner1"/><feColorMatrix values="0 0 0 0 0 0 0 0 0 0 0 0 0 0 0 0 0 0 0.13013549 0" in="shadowInnerInner1"/></filter><linearGradient x1="116.243%" y1="46.142%" x2="-61.761%" y2="60.316%" id="z"><stop stop-color="#F47B85" offset="0%"/><stop stop-color="#B52229" offset="47.357%"/><stop stop-color="#420B0E" offset="100%"/></linearGradient><linearGradient x1="95.562%" y1="45.815%" x2="-27.65%" y2="52.382%" id="A"><stop stop-color="#F78590" offset="0%"/><stop stop-color="#EF2933" offset="40.395%"/><stop stop-color="#900C13" offset="100%"/></linearGradient><linearGradient x1="90.278%" y1="46.515%" x2="-60.958%" y2="55.243%" id="B"><stop stop-color="#DB4753" offset="0%"/><stop stop-color="#B6232A" offset="46.383%"/><stop stop-color="#430608" offset="100%"/></linearGradient><linearGradient x1="10.107%" y1="71.934%" x2="58.119%" y2="134.648%" id="C"><stop stop-color="#5012A8" offset="0%"/><stop stop-color="#CBBCD6" offset="100%"/></linearGradient><linearGradient x1="30.935%" y1="54.808%" x2="53.514%" y2="116.491%" id="D"><stop stop-color="#5B2BB8" offset="0%"/><stop stop-color="#BF9AEA" offset="100%"/></linearGradient><linearGradient x1="52.493%" y1="142.262%" x2="44.373%" y2="70.614%" id="E"><stop stop-color="#D2C5E6" offset="0%"/><stop stop-color="#9B62F5" offset="100%"/></linearGradient><linearGradient x1="51.909%" y1="27.18%" x2="58.15%" y2="-47.425%" id="G"><stop stop-color="#9B62F5" offset="0%"/><stop stop-color="#E8E8E8" offset="100%"/></linearGradient><path d="M24.7 0C11.06 0 0 11.083 0 24.754 0 38.426 11.059 49.51 24.7 49.51" id="F"/><filter x="-22.3%" y="-11.1%" width="144.5%" height="122.2%" filterUnits="objectBoundingBox" id="H"><feGaussianBlur stdDeviation="2" in="SourceAlpha" result="shadowBlurInner1"/><feOffset dx="7" dy="-2" in="shadowBlurInner1" result="shadowOffsetInner1"/><feComposite in="shadowOffsetInner1" in2="SourceAlpha" operator="arithmetic" k2="-1" k3="1" result="shadowInnerInner1"/><feColorMatrix values="0 0 0 0 0 0 0 0 0 0 0 0 0 0 0 0 0 0 0.0277534965 0" in="shadowInnerInner1"/></filter><linearGradient x1="177.088%" y1="43.718%" x2="0%" y2="43.718%" id="I"><stop stop-color="#9960F3" offset="0%"/><stop stop-color="#5F1DBC" offset="100%"/></linearGradient><linearGradient x1="61.594%" y1="-16.635%" x2="61.594%" y2="152.794%" id="J"><stop stop-color="#400E85" offset="0%"/><stop stop-color="#D3BBFA" offset="100%"/></linearGradient><linearGradient x1="62.448%" y1="-3.859%" x2="50%" y2="80.2%" id="K"><stop stop-color="#9960F3" offset="0%"/><stop stop-color="#5F24B2" offset="100%"/></linearGradient><linearGradient x1="50%" y1="50%" x2="68.487%" y2="103.299%" id="L"><stop stop-color="#5414AF" offset="0%"/><stop stop-color="#7421BC" offset="100%"/></linearGradient><linearGradient x1="56.383%" y1="-11.935%" x2="50%" y2="100%" id="M"><stop stop-color="#9960F3" offset="0%"/><stop stop-color="#5115A7" offset="100%"/></linearGradient><radialGradient cx="59.277%" cy="45.857%" fx="59.277%" fy="45.857%" r="60.024%" gradientTransform="matrix(-.91964 .39275 -.47357 -1.10888 1.355 .734)" id="O"><stop stop-color="#EFA207" offset=".013%"/><stop stop-color="#FFC201" offset="72.598%"/><stop stop-color="#FFD758" offset="100%"/></radialGradient><circle id="N" cx="37.857" cy="38.597" r="30"/><filter x="-14.2%" y="-14.2%" width="128.3%" height="128.3%" filterUnits="objectBoundingBox" id="P"><feGaussianBlur stdDeviation="5" in="SourceAlpha" result="shadowBlurInner1"/><feOffset dx="-7" dy="4" in="shadowBlurInner1" result="shadowOffsetInner1"/><feComposite in="shadowOffsetInner1" in2="SourceAlpha" operator="arithmetic" k2="-1" k3="1" result="shadowInnerInner1"/><feColorMatrix values="0 0 0 0 0 0 0 0 0 0 0 0 0 0 0 0 0 0 0.0974104021 0" in="shadowInnerInner1"/></filter><linearGradient x1="90.442%" y1="69.71%" x2="-6.643%" y2="50.588%" id="Q"><stop stop-color="#A74E00" stop-opacity="0" offset="0%"/><stop stop-color="#CE4B02" stop-opacity=".459" offset="44.213%"/><stop stop-color="#E74803" stop-opacity=".747" offset="62.41%"/><stop stop-color="#D17D02" stop-opacity=".499" offset="84.593%"/><stop stop-color="#FCAD04" offset="99.966%"/></linearGradient><linearGradient x1="86.579%" y1="68.679%" x2="-4.262%" y2="48.775%" id="S"><stop stop-color="#A74E00" stop-opacity="0" offset="0%"/><stop stop-color="#D17D02" stop-opacity=".499" offset="53.607%"/><stop stop-color="#E74803" stop-opacity=".747" offset="74.679%"/><stop stop-color="#FCAD04" offset="99.966%"/></linearGradient><linearGradient x1="73.2%" y1="62.633%" x2="-3.863%" y2="47.311%" id="T"><stop stop-color="#A74E00" stop-opacity="0" offset="0%"/><stop stop-color="#E74803" stop-opacity=".747" offset="67.027%"/><stop stop-color="#D17D02" stop-opacity=".499" offset="84.293%"/><stop stop-color="#FCAD04" offset="99.966%"/></linearGradient><linearGradient x1="80.972%" y1="77.742%" x2=".083%" y2="52.725%" id="U"><stop stop-color="#A74E00" stop-opacity="0" offset="0%"/><stop stop-color="#E74803" stop-opacity=".747" offset="71.987%"/><stop stop-color="#D17D02" stop-opacity=".499" offset="87.001%"/><stop stop-color="#FCAD04" offset="99.966%"/></linearGradient></defs><g transform="translate(-200 -308)" fill="none" fill-rule="evenodd"><ellipse fill="url(#a)" transform="rotate(-20 1516 1070.5)" cx="1516" cy="1070.5" rx="1381" ry="636.5"/><ellipse fill="url(#b)" transform="rotate(-20 1515.951 1070.896)" cx="1515.951" cy="1070.896" rx="986.5" ry="454.5"/><g transform="rotate(-14 4770.758 -6118.75)"><mask id="e" fill="#fff"><use xlink:href="#c"/></mask><use fill="url(#d)" xlink:href="#c"/><ellipse stroke="#CC9A3A" stroke-width="5" mask="url(#e)" cx="12.255" cy="2.698" rx="21.5" ry="9"/><ellipse stroke="#CC9A3A" stroke-width="5.5" mask="url(#e)" cx="13.255" cy="7.698" rx="25.5" ry="14"/><ellipse stroke="#B29343" stroke-width="5.5" mask="url(#e)" transform="rotate(-2 13.929 .829)" cx="13.929" cy=".829" rx="12.5" ry="3.5"/><ellipse stroke="#F7DB8A" stroke-width=".2" mask="url(#e)" cx="12.559" cy="-.901" rx="12.5" ry="3.5"/><ellipse stroke="#F7DB8A" stroke-width=".4" mask="url(#e)" transform="rotate(-2 13.02 .436)" cx="13.02" cy=".436" rx="12.5" ry="3.5"/><ellipse stroke="#F7DB8A" stroke-width=".8" mask="url(#e)" transform="rotate(-2 12.98 1.79)" cx="12.98" cy="1.791" rx="13" ry="3.5"/><ellipse stroke="#D2BD82" stroke-width=".4" mask="url(#e)" transform="rotate(-2 13.755 4.198)" cx="13.755" cy="4.198" rx="18" ry="6.5"/><ellipse stroke="#F1D179" mask="url(#e)" transform="rotate(-1 13.755 9.198)" cx="13.755" cy="9.198" rx="20" ry="11.5"/><ellipse stroke="#D2BD82" stroke-width=".4" mask="url(#e)" transform="rotate(-1 13.755 11.198)" cx="13.755" cy="11.198" rx="18" ry="11.5"/><ellipse stroke="#877544" stroke-width=".7" mask="url(#e)" transform="rotate(-2 13.755 6.198)" cx="13.755" cy="6.198" rx="18" ry="6.5"/></g><path d="M1621.338 983.194c-2.486 1.38-3.81 2.676-3.516 3.674.647 2.182 10.679 1.471 20.744-1.336 4.47-1.247 10.078-3.056 13.699-4.505 4.534-1.815 5.592-3.327 5.233-4.54-.236-.796-2.04-1.148-4.726-1.138" stroke="#786F56" stroke-width="1.8" stroke-linecap="round"/><g transform="scale(1 -1) rotate(-46 -131.965 -2589.16)"><mask id="i" fill="#fff"><use xlink:href="#f"/></mask><use fill="url(#g)" xlink:href="#f"/><ellipse fill="url(#h)" mask="url(#i)" cx="12.032" cy="15.257" rx="14.288" ry="15.921"/><g mask="url(#i)"><use fill="url(#j)" xlink:href="#k"/><use fill="#000" filter="url(#l)" xlink:href="#k"/></g><ellipse fill="url(#m)" mask="url(#i)" transform="rotate(-2 15.105 15.513)" cx="15.105" cy="15.513" rx="2.449" ry="2.858"/><ellipse fill="url(#n)" mask="url(#i)" transform="rotate(174 6.168 20.758)" cx="6.168" cy="20.758" rx="1.429" ry="2.041"/><ellipse fill="url(#o)" mask="url(#i)" transform="rotate(27 6.142 9.812)" cx="6.142" cy="9.812" rx="2.245" ry="3.878"/><ellipse fill="url(#p)" mask="url(#i)" transform="rotate(-85 14.342 4.408)" cx="14.342" cy="4.408" rx="1.633" ry="2.654"/><g mask="url(#i)" transform="rotate(-93 13.652 27.151)"><use fill="url(#q)" xlink:href="#r"/><use fill="#000" filter="url(#s)" xlink:href="#r"/></g></g><g transform="scale(-1 1) rotate(16 -4115.169 -5795.56)"><mask id="v" fill="#fff"><use xlink:href="#t"/></mask><use fill-opacity="0" fill="#FFF" xlink:href="#t"/><path d="M-1.25 13.754c7.967 2.557 12.738 3.836 14.311 3.836 4.138 0 8.889-1.52 14.252-4.562l-.948 11.083-12.457 3.137L.458 24.57-1.25 13.754z" fill="url(#u)" mask="url(#v)"/><g mask="url(#v)"><use fill="url(#w)" xlink:href="#x"/><use fill="#000" filter="url(#y)" xlink:href="#x"/></g><path d="M-4.569 1.941h33l1.716 12.351c-8.514 5.074-15.035 7.46-19.564 7.159-4.53-.301-8.67-3.148-12.422-8.538L-4.569 1.94z" fill="url(#z)" mask="url(#v)" transform="rotate(-4 12.79 11.709)"/><path d="M3.153-.102l21.565-.982 3.166 7.415c-3.089-.022-5.943.57-8.565 1.775-3.931 1.808-3.656 2.77-7.035 3.492-2.253.482-6.76-1.265-13.52-5.24l4.39-6.46z" fill="url(#A)" mask="url(#v)"/><path d="M5.265.477c1.982 1.95 4.646 2.925 7.992 2.926 3.087 0 5.639-.889 7.656-2.665l-7.668-2.402L5.265.477z" fill="url(#B)" mask="url(#v)"/></g><g transform="scale(-1 1) rotate(-44 50.48 2885.725)"><ellipse fill="url(#C)" cx="25.011" cy="24.979" rx="24.7" ry="24.754"/><ellipse fill="url(#D)" cx="26.126" cy="24.816" rx="19.911" ry="24.754"/><path d="M25.882 49.742c5.064 0 9.562-11.094 9.562-24.778 0-13.685-4.498-24.778-9.562-24.778-5.064 0-8.777 11.093-8.777 24.778 0 13.684 3.713 24.778 8.777 24.778z" fill="url(#E)"/><g transform="rotate(180 25.009 24.896)"><use fill="url(#G)" xlink:href="#F"/><use fill="#000" filter="url(#H)" xlink:href="#F"/></g><ellipse fill="url(#I)" cx="44.638" cy="21.173" rx="3.317" ry="4.753"/><ellipse fill="url(#J)" cx="29.33" cy="42.593" rx="6.634" ry="4.683"/><circle fill="#400F84" cx="18.266" cy="22.711" r="3.902"/><ellipse fill="url(#K)" cx="25.435" cy="4.959" rx="3.515" ry="2.731"/><ellipse fill="#5115A7" cx="33.134" cy="16.191" rx="2.536" ry="2.64"/><ellipse fill="#5115A7" cx="27.659" cy="27.388" rx="1.561" ry="1.901"/><ellipse fill="url(#L)" cx="18.142" cy="37.755" rx="1.582" ry="1.366"/><ellipse fill="url(#M)" cx="39.775" cy="9.339" rx="1.171" ry="1.584"/><ellipse fill="#5115A7" cx="23.257" cy="15.829" rx="1.582" ry="1.584"/><ellipse fill="#5115A7" cx="42.442" cy="37.787" rx="2.146" ry="2.64"/><ellipse fill="#461093" cx="38.039" cy="29.268" rx="2.146" ry="2.64"/></g><g transform="scale(-1 1) rotate(-3 18420.237 30193.404)"><mask id="R" fill="#fff"><use xlink:href="#N"/></mask><g transform="rotate(72 37.857 38.597)"><use fill="url(#O)" xlink:href="#N"/><use fill="#000" filter="url(#P)" xlink:href="#N"/></g><path d="M48.838 20.146c8.987.471 14.504-3.178 14.504-9.254 0-6.075-7.037-13.834-15.874-13.834-8.836 0-19.763 5.959-19.078 12.003.684 6.044 11.46 10.614 20.448 11.085z" stroke="url(#Q)" stroke-width="4" mask="url(#R)"/><path d="M50.63 43.272c14.085-1.265 22.964-6.501 22.964-17.823S58.666.75 41.269.75c-17.397 0-24.915-2.642-24.915 8.68 0 2.768-3.31 5.835-.733 13.981s8.674 6.463 11.356 12.612c2.681 6.148 15.555 7.975 23.653 7.248z" stroke="url(#S)" stroke-width="3" mask="url(#R)"/><path d="M49.313 30.185c15.032-.214 29.916-8.364 29.916-17.476 0-9.113-12.984-16.5-29-16.5-16.017 0-30.513 6.389-28.987 15.481 1.527 9.093 13.039 18.708 28.07 18.495z" stroke="url(#T)" stroke-width="2" mask="url(#R)"/><path d="M40.805 58.779c16.03-.162 31.428-7.366 33.317-24.29C76.01 17.565 55.81 3.592 38.69 3.592c-17.12 0-32.27 4.317-33.265 23.291-.994 18.974 19.35 32.057 35.38 31.896z" stroke="url(#U)" stroke-width="5" mask="url(#R)"/></g></g></svg>