<?xml version="1.0" encoding="UTF-8"?>
<svg width="948px" height="549px" viewBox="0 0 948 549" version="1.1" xmlns="http://www.w3.org/2000/svg" xmlns:xlink="http://www.w3.org/1999/xlink">
    <!-- Generator: Sketch 61 (89581) - https://sketch.com -->
    <title>background-dark</title>
    <desc>Created with Sketch.</desc>
    <defs>
        <radialGradient cx="50.1850395%" cy="50%" fx="50.1850395%" fy="50%" r="49.1752496%" gradientTransform="translate(0.501850,0.500000),scale(0.460720,1.000000),rotate(90.000000),scale(1.000000,2.175142),translate(-0.501850,-0.500000)" id="radialGradient-1">
            <stop stop-color="#BABABA" offset="0%"></stop>
            <stop stop-color="#C3C3C3" offset="7.55539703%"></stop>
            <stop stop-color="#BFBFBF" offset="7.6582344%"></stop>
            <stop stop-color="#C8C8C8" offset="13.847177%"></stop>
            <stop stop-color="#C3C3C3" offset="13.9162632%"></stop>
            <stop stop-color="#CCCCCC" offset="19.9671074%"></stop>
            <stop stop-color="#C8C8C8" offset="20.0365786%"></stop>
            <stop stop-color="#CECECE" offset="25.8858468%"></stop>
            <stop stop-color="#CCCCCC" offset="25.9063046%"></stop>
            <stop stop-color="#CECECE" offset="31.6949222%"></stop>
            <stop stop-color="#D0D0D0" offset="31.879656%"></stop>
            <stop stop-color="#D4D4D4" offset="42.8685447%"></stop>
            <stop stop-color="#D8D8D8" offset="42.8711837%"></stop>
            <stop stop-color="#DBDBDB" offset="51.0427303%"></stop>
            <stop stop-color="#E0E0E0" offset="51.1996041%"></stop>
            <stop stop-color="#E1E1E1" offset="61.150735%"></stop>
            <stop stop-color="#E4E4E4" offset="61.2598052%"></stop>
            <stop stop-color="#E8E8E8" offset="71.5662132%"></stop>
            <stop stop-color="#EBEBEB" offset="71.6238218%"></stop>
            <stop stop-color="#EFEFEF" offset="83.6578899%"></stop>
            <stop stop-color="#F2F2F2" offset="83.6810632%"></stop>
            <stop stop-color="#F9F9F9" offset="92.0851138%"></stop>
            <stop stop-color="#FCFCFC" offset="92.1585326%"></stop>
            <stop stop-color="#FFFFFF" offset="100%"></stop>
        </radialGradient>
        <linearGradient x1="97.5697935%" y1="-10.2997134%" x2="68.1284607%" y2="185.10988%" id="linearGradient-2">
            <stop stop-color="#FFE493" offset="0%"></stop>
            <stop stop-color="#BC9949" offset="100%"></stop>
        </linearGradient>
        <circle id="path-3" cx="6.53614899" cy="6.17517865" r="6.048"></circle>
        <linearGradient x1="18.0858199%" y1="50%" x2="36.0038256%" y2="103.631505%" id="linearGradient-5">
            <stop stop-color="#1998FF" offset="0%"></stop>
            <stop stop-color="#C7EFFE" offset="100%"></stop>
        </linearGradient>
        <linearGradient x1="50%" y1="-15.5429044%" x2="91.3236839%" y2="38.152254%" id="linearGradient-6">
            <stop stop-color="#BCEBFF" offset="0%"></stop>
            <stop stop-color="#0072E7" offset="100%"></stop>
        </linearGradient>
        <ellipse id="path-7" cx="7.81305296" cy="7.68969702" rx="7.715736" ry="7.61285952"></ellipse>
        <linearGradient x1="62.4148031%" y1="-40.3040748%" x2="75.0194967%" y2="50%" id="linearGradient-9">
            <stop stop-color="#E6F8FF" offset="0%"></stop>
            <stop stop-color="#1998FF" offset="100%"></stop>
        </linearGradient>
        <linearGradient x1="63.1818676%" y1="-13.4156075%" x2="57.7582117%" y2="44.911677%" id="linearGradient-10">
            <stop stop-color="#C9EAF9" offset="0%"></stop>
            <stop stop-color="#4EACF9" offset="100%"></stop>
        </linearGradient>
        <path d="M3.64213271,16.4030634 C7.27842781,16.4030634 10.4523392,12.9139961 10.4523392,7.20996905 C10.4523392,1.50594203 7.0590364,-3.0554054 3.42274129,-3.0554054 C-0.213553814,-3.0554054 -2.9216032,1.61026581 -2.9216032,7.31429283 C-2.9216032,13.0183198 0.0058376044,16.4030634 3.64213271,16.4030634 Z" id="path-11"></path>
        <filter x="-33.6%" y="-23.1%" width="167.3%" height="146.3%" filterUnits="objectBoundingBox" id="filter-12">
            <feGaussianBlur stdDeviation="1.5" in="SourceAlpha" result="shadowBlurInner1"></feGaussianBlur>
            <feOffset dx="6" dy="3" in="shadowBlurInner1" result="shadowOffsetInner1"></feOffset>
            <feComposite in="shadowOffsetInner1" in2="SourceAlpha" operator="arithmetic" k2="-1" k3="1" result="shadowInnerInner1"></feComposite>
            <feColorMatrix values="0 0 0 0 0   0 0 0 0 0   0 0 0 0 0  0 0 0 0.0542777535 0" type="matrix" in="shadowInnerInner1"></feColorMatrix>
        </filter>
        <linearGradient x1="50%" y1="-75.7681479%" x2="61.6142749%" y2="129.076606%" id="linearGradient-13">
            <stop stop-color="#71C9FF" offset="0%"></stop>
            <stop stop-color="#0369BC" offset="100%"></stop>
        </linearGradient>
        <linearGradient x1="97.7210031%" y1="0%" x2="-18.3796882%" y2="238.89509%" id="linearGradient-14">
            <stop stop-color="#076BBD" offset="0%"></stop>
            <stop stop-color="#53BCFB" offset="100%"></stop>
        </linearGradient>
        <linearGradient x1="33.2409972%" y1="-124.445812%" x2="54.459054%" y2="110.884773%" id="linearGradient-15">
            <stop stop-color="#97D5FA" offset="0%"></stop>
            <stop stop-color="#0167B9" offset="100%"></stop>
        </linearGradient>
        <linearGradient x1="-28.4876587%" y1="50%" x2="246.4296%" y2="50%" id="linearGradient-16">
            <stop stop-color="#1792DC" offset="0%"></stop>
            <stop stop-color="#B3E4F6" offset="100%"></stop>
        </linearGradient>
        <linearGradient x1="217.725686%" y1="0%" x2="4.19496363%" y2="50%" id="linearGradient-17">
            <stop stop-color="#06B2F3" offset="0%"></stop>
            <stop stop-color="#0680E3" offset="100%"></stop>
        </linearGradient>
        <ellipse id="path-18" cx="6.88076908" cy="13.684252" rx="1" ry="1.0287648"></ellipse>
        <filter x="-60.8%" y="-48.6%" width="221.5%" height="197.2%" filterUnits="objectBoundingBox" id="filter-19">
            <feGaussianBlur stdDeviation="0.5" in="SourceAlpha" result="shadowBlurInner1"></feGaussianBlur>
            <feOffset dx="1" dy="-1" in="shadowBlurInner1" result="shadowOffsetInner1"></feOffset>
            <feComposite in="shadowOffsetInner1" in2="SourceAlpha" operator="arithmetic" k2="-1" k3="1" result="shadowInnerInner1"></feComposite>
            <feColorMatrix values="0 0 0 0 0   0 0 0 0 0   0 0 0 0 0  0 0 0 0.133932474 0" type="matrix" in="shadowInnerInner1"></feColorMatrix>
        </filter>
        <ellipse id="path-20" cx="6.56954121" cy="6.57005567" rx="6.55921212" ry="6.56840203"></ellipse>
        <linearGradient x1="94.6553752%" y1="55.1114299%" x2="-23.9606663%" y2="52.6706149%" id="linearGradient-22">
            <stop stop-color="#EF828C" offset="0%"></stop>
            <stop stop-color="#EF2933" offset="42.3042524%"></stop>
            <stop stop-color="#EF2933" offset="100%"></stop>
            <stop stop-color="#EF2933" offset="100%"></stop>
        </linearGradient>
        <linearGradient x1="116.243369%" y1="43.8304178%" x2="-17.0602643%" y2="62.480851%" id="linearGradient-23">
            <stop stop-color="#F47B85" offset="0%"></stop>
            <stop stop-color="#B52229" offset="47.3566703%"></stop>
            <stop stop-color="#420B0E" offset="100%"></stop>
        </linearGradient>
        <path d="M-0.303723089,7.18305489 C1.25792692,8.00388594 2.51138628,8.62503241 4.02598039,9.71520222 C6.19606772,11.2771809 9.65495401,10.1175734 14.4026392,6.23637966 L13.0811392,-0.2007282 L0.34234789,-0.742425902 C-1.522223,3.77047537 -1.73757999,6.4123023 -0.303723089,7.18305489 Z" id="path-24"></path>
        <filter x="-16.0%" y="-22.5%" width="132.0%" height="144.9%" filterUnits="objectBoundingBox" id="filter-25">
            <feGaussianBlur stdDeviation="1" in="SourceAlpha" result="shadowBlurInner1"></feGaussianBlur>
            <feOffset dx="3" dy="2" in="shadowBlurInner1" result="shadowOffsetInner1"></feOffset>
            <feComposite in="shadowOffsetInner1" in2="SourceAlpha" operator="arithmetic" k2="-1" k3="1" result="shadowInnerInner1"></feComposite>
            <feColorMatrix values="0 0 0 0 0   0 0 0 0 0   0 0 0 0 0  0 0 0 0.13013549 0" type="matrix" in="shadowInnerInner1"></feColorMatrix>
        </filter>
        <linearGradient x1="116.243369%" y1="46.1418701%" x2="-61.7607218%" y2="60.3156508%" id="linearGradient-26">
            <stop stop-color="#F47B85" offset="0%"></stop>
            <stop stop-color="#B52229" offset="47.3566703%"></stop>
            <stop stop-color="#420B0E" offset="100%"></stop>
        </linearGradient>
        <linearGradient x1="95.561625%" y1="45.8146815%" x2="-27.6497149%" y2="52.3823954%" id="linearGradient-27">
            <stop stop-color="#F78590" offset="0%"></stop>
            <stop stop-color="#EF2933" offset="40.3950968%"></stop>
            <stop stop-color="#900C13" offset="100%"></stop>
        </linearGradient>
        <linearGradient x1="90.2780318%" y1="46.5145899%" x2="-60.9584957%" y2="55.2433505%" id="linearGradient-28">
            <stop stop-color="#DB4753" offset="0%"></stop>
            <stop stop-color="#B6232A" offset="46.3832644%"></stop>
            <stop stop-color="#430608" offset="100%"></stop>
        </linearGradient>
        <linearGradient x1="10.1066265%" y1="71.9344302%" x2="58.1187799%" y2="134.647539%" id="linearGradient-29">
            <stop stop-color="#5012A8" offset="0%"></stop>
            <stop stop-color="#CBBCD6" offset="100%"></stop>
        </linearGradient>
        <linearGradient x1="30.9347617%" y1="54.8083826%" x2="53.513558%" y2="116.491115%" id="linearGradient-30">
            <stop stop-color="#5B2BB8" offset="0%"></stop>
            <stop stop-color="#BF9AEA" offset="100%"></stop>
        </linearGradient>
        <linearGradient x1="52.4930522%" y1="142.261656%" x2="44.3726044%" y2="70.6144479%" id="linearGradient-31">
            <stop stop-color="#D2C5E6" offset="0%"></stop>
            <stop stop-color="#9B62F5" offset="100%"></stop>
        </linearGradient>
        <linearGradient x1="51.9089644%" y1="27.179994%" x2="58.1500154%" y2="-47.4253633%" id="linearGradient-32">
            <stop stop-color="#9B62F5" offset="0%"></stop>
            <stop stop-color="#E8E8E8" offset="100%"></stop>
        </linearGradient>
        <path d="M12.4488365,-8.02174327e-13 C5.57353393,-8.02174327e-13 -9.16770659e-13,5.58577876 -9.16770659e-13,12.4761861 C-9.16770659e-13,19.3665933 5.57353393,24.9523721 12.4488365,24.9523721 L12.4488365,24.9523721" id="path-33"></path>
        <filter x="-24.1%" y="-12.0%" width="148.2%" height="124.0%" filterUnits="objectBoundingBox" id="filter-35">
            <feGaussianBlur stdDeviation="1" in="SourceAlpha" result="shadowBlurInner1"></feGaussianBlur>
            <feOffset dx="4" dy="-1" in="shadowBlurInner1" result="shadowOffsetInner1"></feOffset>
            <feComposite in="shadowOffsetInner1" in2="SourceAlpha" operator="arithmetic" k2="-1" k3="1" result="shadowInnerInner1"></feComposite>
            <feColorMatrix values="0 0 0 0 0   0 0 0 0 0   0 0 0 0 0  0 0 0 0.0277534965 0" type="matrix" in="shadowInnerInner1"></feColorMatrix>
        </filter>
        <linearGradient x1="177.087906%" y1="43.7180799%" x2="0%" y2="43.7180799%" id="linearGradient-36">
            <stop stop-color="#9960F3" offset="0%"></stop>
            <stop stop-color="#5F1DBC" offset="100%"></stop>
        </linearGradient>
        <linearGradient x1="61.5939911%" y1="-16.6347074%" x2="61.5939911%" y2="152.7945%" id="linearGradient-37">
            <stop stop-color="#400E85" offset="0%"></stop>
            <stop stop-color="#D3BBFA" offset="100%"></stop>
        </linearGradient>
        <linearGradient x1="62.4478985%" y1="-3.8592043%" x2="50%" y2="80.2003904%" id="linearGradient-38">
            <stop stop-color="#9960F3" offset="0%"></stop>
            <stop stop-color="#5F24B2" offset="100%"></stop>
        </linearGradient>
        <linearGradient x1="50%" y1="50%" x2="68.4872142%" y2="103.299221%" id="linearGradient-39">
            <stop stop-color="#5414AF" offset="0%"></stop>
            <stop stop-color="#7421BC" offset="100%"></stop>
        </linearGradient>
        <linearGradient x1="56.3833832%" y1="-11.9348046%" x2="50%" y2="100%" id="linearGradient-40">
            <stop stop-color="#9960F3" offset="0%"></stop>
            <stop stop-color="#5115A7" offset="100%"></stop>
        </linearGradient>
        <path d="M12.4488365,-8.02174327e-13 C5.57353393,-8.02174327e-13 -9.16770659e-13,5.58577876 -9.16770659e-13,12.4761861 C-9.16770659e-13,19.3665933 5.57353393,24.9523721 12.4488365,24.9523721 L12.4488365,24.9523721" id="path-41"></path>
        <filter x="-24.1%" y="-12.0%" width="148.2%" height="124.0%" filterUnits="objectBoundingBox" id="filter-43">
            <feGaussianBlur stdDeviation="1" in="SourceAlpha" result="shadowBlurInner1"></feGaussianBlur>
            <feOffset dx="4" dy="-1" in="shadowBlurInner1" result="shadowOffsetInner1"></feOffset>
            <feComposite in="shadowOffsetInner1" in2="SourceAlpha" operator="arithmetic" k2="-1" k3="1" result="shadowInnerInner1"></feComposite>
            <feColorMatrix values="0 0 0 0 0   0 0 0 0 0   0 0 0 0 0  0 0 0 0.0277534965 0" type="matrix" in="shadowInnerInner1"></feColorMatrix>
        </filter>
        <radialGradient cx="59.2768353%" cy="45.8565197%" fx="59.2768353%" fy="45.8565197%" r="60.0241066%" gradientTransform="translate(0.592768,0.458565),rotate(156.874066),scale(1.000000,1.205766),translate(-0.592768,-0.458565)" id="radialGradient-44">
            <stop stop-color="#EFA207" offset="0.0131967905%"></stop>
            <stop stop-color="#FFC201" offset="72.5981841%"></stop>
            <stop stop-color="#FFD758" offset="100%"></stop>
        </radialGradient>
        <circle id="path-45" cx="19.0798632" cy="19.4526941" r="15.12"></circle>
        <filter x="-14.9%" y="-14.9%" width="129.8%" height="129.8%" filterUnits="objectBoundingBox" id="filter-47">
            <feGaussianBlur stdDeviation="2.5" in="SourceAlpha" result="shadowBlurInner1"></feGaussianBlur>
            <feOffset dx="-4" dy="2" in="shadowBlurInner1" result="shadowOffsetInner1"></feOffset>
            <feComposite in="shadowOffsetInner1" in2="SourceAlpha" operator="arithmetic" k2="-1" k3="1" result="shadowInnerInner1"></feComposite>
            <feColorMatrix values="0 0 0 0 0   0 0 0 0 0   0 0 0 0 0  0 0 0 0.0974104021 0" type="matrix" in="shadowInnerInner1"></feColorMatrix>
        </filter>
        <linearGradient x1="90.4424368%" y1="69.7099378%" x2="-6.64326078%" y2="50.5883284%" id="linearGradient-48">
            <stop stop-color="#A74E00" stop-opacity="0" offset="0%"></stop>
            <stop stop-color="#CE4B02" stop-opacity="0.458530136" offset="44.2126721%"></stop>
            <stop stop-color="#E74803" stop-opacity="0.747046338" offset="62.4098323%"></stop>
            <stop stop-color="#D17D02" stop-opacity="0.498947163" offset="84.5929939%"></stop>
            <stop stop-color="#FCAD04" offset="99.9656883%"></stop>
        </linearGradient>
        <linearGradient x1="86.5790513%" y1="68.6785707%" x2="-4.2615726%" y2="48.7754074%" id="linearGradient-49">
            <stop stop-color="#A74E00" stop-opacity="0" offset="0%"></stop>
            <stop stop-color="#D17D02" stop-opacity="0.498947163" offset="53.607063%"></stop>
            <stop stop-color="#E74803" stop-opacity="0.747046338" offset="74.6790014%"></stop>
            <stop stop-color="#FCAD04" offset="99.9656883%"></stop>
        </linearGradient>
        <linearGradient x1="73.2002107%" y1="62.6332886%" x2="-3.86250184%" y2="47.3114658%" id="linearGradient-50">
            <stop stop-color="#A74E00" stop-opacity="0" offset="0%"></stop>
            <stop stop-color="#E74803" stop-opacity="0.747046338" offset="67.0266948%"></stop>
            <stop stop-color="#D17D02" stop-opacity="0.498947163" offset="84.2925221%"></stop>
            <stop stop-color="#FCAD04" offset="99.9656883%"></stop>
        </linearGradient>
        <linearGradient x1="80.9715552%" y1="77.7416038%" x2="0.0833194482%" y2="52.7245651%" id="linearGradient-51">
            <stop stop-color="#A74E00" stop-opacity="0" offset="0%"></stop>
            <stop stop-color="#E74803" stop-opacity="0.747046338" offset="71.9872543%"></stop>
            <stop stop-color="#D17D02" stop-opacity="0.498947163" offset="87.0011336%"></stop>
            <stop stop-color="#FCAD04" offset="99.9656883%"></stop>
        </linearGradient>
    </defs>
    <g id="final" stroke="none" stroke-width="1" fill="none" fill-rule="evenodd">
        <g id="background-dark" transform="translate(-290.000000, -265.000000)">
            <ellipse id="bg-light" fill="url(#radialGradient-1)" transform="translate(764.039408, 539.731756) rotate(-20.000000) translate(-764.039408, -539.731756) " cx="764.039408" cy="539.731756" rx="497.196" ry="229.068"></ellipse>
            <g id="galaxy" transform="translate(887.000000, 470.500000) rotate(3.000000) translate(-887.000000, -470.500000) translate(747.000000, 390.000000)">
                <g id="saturn" transform="translate(80.078759, 107.895604) rotate(-17.000000) translate(-80.078759, -107.895604) translate(73.578759, 101.395604)">
                    <mask id="mask-4" fill="white">
                        <use xlink:href="#path-3"></use>
                    </mask>
                    <use id="Mask" fill="url(#linearGradient-2)" xlink:href="#path-3"></use>
                    <ellipse id="Oval" stroke="#CC9A3A" stroke-width="2.52" mask="url(#mask-4)" cx="6.17653914" cy="1.35990209" rx="10.836" ry="4.536"></ellipse>
                    <ellipse id="Oval" stroke="#CC9A3A" stroke-width="2.772" mask="url(#mask-4)" cx="6.68053914" cy="3.87990209" rx="12.852" ry="7.056"></ellipse>
                    <ellipse id="Oval" stroke="#B29343" stroke-width="2.772" mask="url(#mask-4)" transform="translate(7.020193, 0.417689) rotate(-2.000000) translate(-7.020193, -0.417689) " cx="7.02019311" cy="0.417688762" rx="6.3" ry="1.764"></ellipse>
                    <ellipse id="Oval" stroke="#F7DB8A" stroke-width="0.5" mask="url(#mask-4)" cx="6.32986504" cy="-0.454229501" rx="6.3" ry="1.764"></ellipse>
                    <ellipse id="Oval" stroke="#F7DB8A" stroke-width="0.5" mask="url(#mask-4)" transform="translate(6.561918, 0.219702) rotate(-2.000000) translate(-6.561918, -0.219702) " cx="6.56191818" cy="0.219701757" rx="6.3" ry="1.764"></ellipse>
                    <ellipse id="Oval" stroke="#F7DB8A" stroke-width="0.5" mask="url(#mask-4)" transform="translate(6.542125, 0.902428) rotate(-2.000000) translate(-6.542125, -0.902428) " cx="6.54212483" cy="0.902427687" rx="6.552" ry="1.764"></ellipse>
                    <ellipse id="Oval" stroke="#D2BD82" stroke-width="0.5" mask="url(#mask-4)" transform="translate(6.932539, 2.115902) rotate(-2.000000) translate(-6.932539, -2.115902) " cx="6.93253914" cy="2.11590209" rx="9.072" ry="3.276"></ellipse>
                    <ellipse id="Oval" stroke="#F1D179" stroke-width="0.504" mask="url(#mask-4)" transform="translate(6.932539, 4.635902) rotate(-1.000000) translate(-6.932539, -4.635902) " cx="6.93253914" cy="4.63590209" rx="10.08" ry="5.796"></ellipse>
                    <ellipse id="Oval" stroke="#D2BD82" stroke-width="0.5" mask="url(#mask-4)" transform="translate(6.932539, 5.643902) rotate(-1.000000) translate(-6.932539, -5.643902) " cx="6.93253914" cy="5.64390209" rx="9.072" ry="5.796"></ellipse>
                    <ellipse id="Oval" stroke="#877544" stroke-width="0.5" mask="url(#mask-4)" transform="translate(6.932539, 3.123902) rotate(-2.000000) translate(-6.932539, -3.123902) " cx="6.93253914" cy="3.12390209" rx="9.072" ry="3.276"></ellipse>
                </g>
                <path d="M72.0601528,106.291245 C70.6637787,106.614826 69.8421847,107.058538 69.8466186,107.582911 C69.856434,108.730114 74.8155624,109.779126 80.0820827,109.817352 C82.4207729,109.834328 85.3889374,109.736805 87.3446809,109.537737 C89.7930962,109.288522 90.5159948,108.702997 90.5106186,108.06523 C90.5069913,107.646802 89.6816647,107.225741 88.3789625,106.857778" id="orbit" stroke="#786F56" stroke-width="0.9072" stroke-linecap="round" transform="translate(80.178619, 108.055245) rotate(-19.000000) translate(-80.178619, -108.055245) "></path>
                <g id="blue-planet" transform="translate(181.749710, 54.170721) scale(1, -1) rotate(-43.000000) translate(-181.749710, -54.170721) translate(173.749710, 46.170721)">
                    <mask id="mask-8" fill="white">
                        <use xlink:href="#path-7"></use>
                    </mask>
                    <use id="Oval" fill="url(#linearGradient-6)" xlink:href="#path-7"></use>
                    <ellipse id="Oval" fill="url(#linearGradient-9)" mask="url(#mask-8)" cx="6.0641528" cy="7.68969702" rx="7.2013536" ry="8.02436544"></ellipse>
                    <g id="Oval" mask="url(#mask-8)">
                        <use fill="url(#linearGradient-10)" fill-rule="evenodd" xlink:href="#path-11"></use>
                        <use fill="black" fill-opacity="1" filter="url(#filter-12)" xlink:href="#path-11"></use>
                    </g>
                    <ellipse id="Oval" fill="url(#linearGradient-13)" mask="url(#mask-8)" transform="translate(7.612860, 7.818612) rotate(-2.000000) translate(-7.612860, -7.818612) " cx="7.61285952" cy="7.81861248" rx="1.23451776" ry="1.44027072"></ellipse>
                    <ellipse id="Oval" fill="url(#linearGradient-14)" mask="url(#mask-8)" transform="translate(3.108716, 10.462070) rotate(174.000000) translate(-3.108716, -10.462070) " cx="3.10871588" cy="10.4620696" rx="1" ry="1.0287648"></ellipse>
                    <ellipse id="Oval" fill="url(#linearGradient-15)" mask="url(#mask-8)" transform="translate(3.095643, 4.945029) rotate(27.000000) translate(-3.095643, -4.945029) " cx="3.09564345" cy="4.94502892" rx="1.13164128" ry="1.95465312"></ellipse>
                    <ellipse id="Oval" fill="url(#linearGradient-16)" mask="url(#mask-8)" transform="translate(7.228509, 2.221566) rotate(275.000000) translate(-7.228509, -2.221566) " cx="7.2285089" cy="2.2215662" rx="1" ry="1.33739424"></ellipse>
                    <g id="Oval" mask="url(#mask-8)" transform="translate(6.880769, 13.684252) rotate(-93.000000) translate(-6.880769, -13.684252) ">
                        <use fill="url(#linearGradient-17)" fill-rule="evenodd" xlink:href="#path-18"></use>
                        <use fill="black" fill-opacity="1" filter="url(#filter-19)" xlink:href="#path-18"></use>
                    </g>
                </g>
                <g id="red-planet" transform="translate(133.875455, 77.404877) scale(-1, 1) rotate(19.000000) translate(-133.875455, -77.404877) translate(126.875455, 70.404877)">
                    <mask id="mask-21" fill="white">
                        <use xlink:href="#path-20"></use>
                    </mask>
                    <use id="Mask" fill-opacity="0" fill="#FFFFFF" xlink:href="#path-20"></use>
                    <path d="M-0.630298135,6.93199421 C3.38554577,8.22098865 5.78994764,8.86548586 6.58290746,8.86548586 C8.66847766,8.86548586 11.0627791,8.09894533 13.7658116,6.56586426 L13.2881729,12.1521414 L7.00974025,13.7329944 L0.231309154,12.3831906 L-0.630298135,6.93199421 Z" id="Path-13" fill="url(#linearGradient-22)" mask="url(#mask-21)"></path>
                    <g id="Path-14" mask="url(#mask-21)">
                        <use fill="url(#linearGradient-23)" fill-rule="evenodd" xlink:href="#path-24"></use>
                        <use fill="black" fill-opacity="1" filter="url(#filter-25)" xlink:href="#path-24"></use>
                    </g>
                    <path d="M-2.30270146,0.978420245 L14.3292985,0.978420245 L15.1942177,7.20341994 C10.9031638,9.76053786 7.61633239,10.963148 5.33372353,10.8112503 C3.05111467,10.6593527 0.964320026,9.22491624 -0.926660399,6.50794107 L-2.30270146,0.978420245 Z" id="Rectangle" fill="url(#linearGradient-26)" mask="url(#mask-21)" transform="translate(6.445758, 5.901223) rotate(-4.000000) translate(-6.445758, -5.901223) "></path>
                    <path d="M1.58914213,-0.051316567 L12.4577421,-0.546282867 L14.0535878,3.19060306 C12.4969195,3.17956398 11.0580547,3.4778002 9.73699328,4.08531173 C7.75540114,4.99657902 7.89432237,5.48105491 6.1912389,5.84533468 C5.05584992,6.08818786 2.78440125,5.20793972 -0.623107098,3.20459027 L1.58914213,-0.051316567 Z" id="Path-12" fill="url(#linearGradient-27)" mask="url(#mask-21)"></path>
                    <path d="M2.6533279,0.240489216 C3.6522985,1.22329388 4.99510146,1.71482878 6.68173677,1.71509391 C8.23737445,1.71482878 9.5234415,1.26716909 10.5399379,0.372114841 L6.675499,-0.838840909 L2.6533279,0.240489216 Z" id="Path-10" fill="url(#linearGradient-28)" mask="url(#mask-21)"></path>
                </g>
                <g id="purple-planet" transform="translate(235.707206, 31.010600) scale(1, -1) rotate(139.000000) translate(-235.707206, -31.010600) translate(222.707206, 18.010600)">
                    <ellipse id="Oval" fill="url(#linearGradient-29)" cx="12.60542" cy="12.5892484" rx="12.4488365" ry="12.4761861"></ellipse>
                    <ellipse id="Oval" fill="url(#linearGradient-30)" cx="13.1673657" cy="12.5074044" rx="10.0352865" ry="12.4761861"></ellipse>
                    <path d="M13.0444756,25.0699993 C15.5969303,25.0699993 17.8640026,19.4788286 17.8640026,12.58177 C17.8640026,5.68471146 15.5969303,0.0935407571 13.0444756,0.0935407571 C10.4920208,0.0935407571 8.62074628,5.68471146 8.62074628,12.58177 C8.62074628,19.4788286 10.4920208,25.0699993 13.0444756,25.0699993 Z" id="Oval" fill="url(#linearGradient-31)"></path>
                    <g id="Path-9" transform="translate(12.760262, 0.142852)">
                        <mask id="mask-34" fill="white">
                            <use xlink:href="#path-33"></use>
                        </mask>
                        <g id="Mask" transform="translate(6.224418, 12.476186) rotate(180.000000) translate(-6.224418, -12.476186) ">
                            <use fill="url(#linearGradient-32)" fill-rule="evenodd" xlink:href="#path-33"></use>
                            <use fill="black" fill-opacity="1" filter="url(#filter-35)" xlink:href="#path-33"></use>
                        </g>
                    </g>
                    <ellipse id="Oval" fill="url(#linearGradient-36)" cx="22.4977864" cy="10.6714423" rx="1.67165274" ry="2.39542772"></ellipse>
                    <ellipse id="Oval" fill="url(#linearGradient-37)" cx="14.7822532" cy="21.4670076" rx="3.34330548" ry="2.35998034"></ellipse>
                    <circle id="Oval" fill="#400F84" cx="9.20630385" cy="11.4464766" r="1.96665028"></circle>
                    <ellipse id="Oval" fill="url(#linearGradient-38)" cx="12.819121" cy="2.49944849" rx="1.77134804" ry="1.3766552"></ellipse>
                    <ellipse id="Oval" fill="#5115A7" cx="16.6996125" cy="8.16027187" rx="1.27832268" ry="1.33079318"></ellipse>
                    <ellipse id="Oval" fill="#5115A7" cx="13.940189" cy="13.8033491" rx="1" ry="1"></ellipse>
                    <ellipse id="Oval" fill="url(#linearGradient-39)" cx="9.1436762" cy="19.0286465" rx="1" ry="1"></ellipse>
                    <ellipse id="Oval" fill="url(#linearGradient-40)" cx="20.046796" cy="4.70672991" rx="1" ry="1"></ellipse>
                    <ellipse id="Oval" fill="#5115A7" cx="11.7213108" cy="7.97780106" rx="1" ry="1"></ellipse>
                    <ellipse id="Oval" fill="#5115A7" cx="21.3905353" cy="19.0444838" rx="1.08165765" ry="1.33079318"></ellipse>
                    <ellipse id="Oval" fill="#461093" cx="19.1715268" cy="14.750855" rx="1.08165765" ry="1.33079318"></ellipse>
                </g>
                <g id="purple-planet" transform="translate(235.707206, 31.010600) scale(1, -1) rotate(139.000000) translate(-235.707206, -31.010600) translate(222.707206, 18.010600)">
                    <ellipse id="Oval" fill="url(#linearGradient-29)" cx="12.60542" cy="12.5892484" rx="12.4488365" ry="12.4761861"></ellipse>
                    <ellipse id="Oval" fill="url(#linearGradient-30)" cx="13.1673657" cy="12.5074044" rx="10.0352865" ry="12.4761861"></ellipse>
                    <path d="M13.0444756,25.0699993 C15.5969303,25.0699993 17.8640026,19.4788286 17.8640026,12.58177 C17.8640026,5.68471146 15.5969303,0.0935407571 13.0444756,0.0935407571 C10.4920208,0.0935407571 8.62074628,5.68471146 8.62074628,12.58177 C8.62074628,19.4788286 10.4920208,25.0699993 13.0444756,25.0699993 Z" id="Oval" fill="url(#linearGradient-31)"></path>
                    <g id="Path-9" transform="translate(12.760262, 0.142852)">
                        <mask id="mask-42" fill="white">
                            <use xlink:href="#path-41"></use>
                        </mask>
                        <g id="Mask" transform="translate(6.224418, 12.476186) rotate(180.000000) translate(-6.224418, -12.476186) ">
                            <use fill="url(#linearGradient-32)" fill-rule="evenodd" xlink:href="#path-41"></use>
                            <use fill="black" fill-opacity="1" filter="url(#filter-43)" xlink:href="#path-41"></use>
                        </g>
                    </g>
                    <ellipse id="Oval" fill="url(#linearGradient-36)" cx="22.4977864" cy="10.6714423" rx="1.67165274" ry="2.39542772"></ellipse>
                    <ellipse id="Oval" fill="url(#linearGradient-37)" cx="14.7822532" cy="21.4670076" rx="3.34330548" ry="2.35998034"></ellipse>
                    <circle id="Oval" fill="#400F84" cx="9.20630385" cy="11.4464766" r="1.96665028"></circle>
                    <ellipse id="Oval" fill="url(#linearGradient-38)" cx="12.819121" cy="2.49944849" rx="1.77134804" ry="1.3766552"></ellipse>
                    <ellipse id="Oval" fill="#5115A7" cx="16.6996125" cy="8.16027187" rx="1.27832268" ry="1.33079318"></ellipse>
                    <ellipse id="Oval" fill="#5115A7" cx="13.940189" cy="13.8033491" rx="1" ry="1"></ellipse>
                    <ellipse id="Oval" fill="url(#linearGradient-39)" cx="9.1436762" cy="19.0286465" rx="1" ry="1"></ellipse>
                    <ellipse id="Oval" fill="url(#linearGradient-40)" cx="20.046796" cy="4.70672991" rx="1" ry="1"></ellipse>
                    <ellipse id="Oval" fill="#5115A7" cx="11.7213108" cy="7.97780106" rx="1" ry="1"></ellipse>
                    <ellipse id="Oval" fill="#5115A7" cx="21.3905353" cy="19.0444838" rx="1.08165765" ry="1.33079318"></ellipse>
                    <ellipse id="Oval" fill="#461093" cx="19.1715268" cy="14.750855" rx="1.08165765" ry="1.33079318"></ellipse>
                </g>
                <g id="yellow-planet" transform="translate(19.604000, 141.468000) scale(-1, 1) translate(-19.604000, -141.468000) translate(0.104000, 121.968000)">
                    <mask id="mask-46" fill="white">
                        <use xlink:href="#path-45"></use>
                    </mask>
                    <g id="Oval" transform="translate(19.079863, 19.452694) rotate(72.000000) translate(-19.079863, -19.452694) ">
                        <use fill="url(#radialGradient-44)" fill-rule="evenodd" xlink:href="#path-45"></use>
                        <use fill="black" fill-opacity="1" filter="url(#filter-47)" xlink:href="#path-45"></use>
                    </g>
                    <path d="M24.6141252,10.1535909 C29.1439087,10.3909868 31.9242284,8.55164721 31.9242284,5.48978056 C31.9242284,2.42791391 28.3776587,-1.48287516 23.9240345,-1.48287516 C19.4704102,-1.48287516 13.963358,1.52034126 14.3084034,4.56657429 C14.6534488,7.61280733 20.0843416,9.91619501 24.6141252,10.1535909 Z" id="Oval" stroke="url(#linearGradient-48)" stroke-width="2.016" mask="url(#mask-46)"></path>
                    <path d="M25.5173746,21.8088364 C32.6164593,21.1715004 37.091348,18.5324671 37.091348,12.8262611 C37.091348,7.12005506 29.5678122,0.37872492 20.7997395,0.37872492 C12.0316669,0.37872492 8.24231465,-0.952850322 8.24231465,4.75335571 C8.24231465,6.14826979 6.57412286,7.69407946 7.87303214,11.7996857 C9.17194142,15.905292 12.2445518,15.0569373 13.5962157,18.155925 C14.9478796,21.2549127 21.4360471,22.1752467 25.5173746,21.8088364 Z" id="Oval" stroke="url(#linearGradient-49)" stroke-width="1.512" mask="url(#mask-46)"></path>
                    <path d="M24.8536612,15.2130611 C32.4296778,15.1054116 39.9312644,10.9979486 39.9312644,6.40514859 C39.9312644,1.81234861 33.3874583,-1.91085141 25.3152644,-1.91085141 C17.2430705,-1.91085141 9.93688376,1.30932268 10.7061064,5.89186089 C11.4753291,10.4743991 17.2776446,15.3207105 24.8536612,15.2130611 Z" id="Oval" stroke="url(#linearGradient-50)" stroke-width="1.008" mask="url(#mask-46)"></path>
                    <path d="M20.5655539,29.6243891 C28.6448798,29.543117 36.4055377,25.9123025 37.3572614,17.382422 C38.3089852,8.85254146 28.1286571,1.8104918 19.4997602,1.8104918 C10.8708633,1.8104918 3.23559912,3.98627321 2.73443,13.5491496 C2.23326088,23.1120261 12.486228,29.7056612 20.5655539,29.6243891 Z" id="Oval" stroke="url(#linearGradient-51)" stroke-width="2.52" mask="url(#mask-46)"></path>
                </g>
            </g>
        </g>
    </g>
</svg>