<svg width="1884" height="1093" xmlns="http://www.w3.org/2000/svg" xmlns:xlink="http://www.w3.org/1999/xlink"><defs><radialGradient cx="43.525%" cy="50%" fx="43.525%" fy="50%" r="53.684%" gradientTransform="matrix(-.00492 .99994 -1.05531 -.02449 .965 .077)" id="a"><stop stop-color="#004F52" offset="0%"/><stop stop-color="#004F52" offset="2.597%"/><stop stop-color="#004C4F" offset="2.61%"/><stop stop-color="#004C4F" offset="5.675%"/><stop stop-color="#024A4D" offset="5.746%"/><stop stop-color="#024A4D" offset="7.538%"/><stop stop-color="#004B4E" offset="7.583%"/><stop stop-color="#00494C" offset="8.858%"/><stop stop-color="#00484C" offset="8.975%"/><stop stop-color="#00474A" offset="12.286%"/><stop stop-color="#004648" offset="12.378%"/><stop stop-color="#004446" offset="15.75%"/><stop stop-color="#004446" offset="16.003%"/><stop stop-color="#004144" offset="20.31%"/><stop stop-color="#004041" offset="20.46%"/><stop stop-color="#003F41" offset="25.17%"/><stop stop-color="#003D3E" offset="25.23%"/><stop stop-color="#003B3D" offset="29.428%"/><stop stop-color="#003A3B" offset="29.525%"/><stop stop-color="#00383A" offset="33.148%"/><stop stop-color="#003739" offset="33.225%"/><stop stop-color="#003737" offset="36.477%"/><stop stop-color="#003537" offset="36.576%"/><stop stop-color="#003436" offset="39.813%"/><stop stop-color="#003233" offset="39.941%"/><stop stop-color="#003130" offset="45.765%"/><stop stop-color="#002F31" offset="45.915%"/><stop stop-color="#002E30" offset="49.576%"/><stop stop-color="#002D2D" offset="49.636%"/><stop stop-color="#002C2C" offset="52.827%"/><stop stop-color="#002B2B" offset="54.667%"/><stop stop-color="#002A2A" offset="54.767%"/><stop stop-color="#00292A" offset="59.613%"/><stop stop-color="#002727" offset="59.845%"/><stop stop-color="#012426" offset="65.325%"/><stop stop-color="#022426" offset="67.659%"/><stop stop-color="#022323" offset="70.771%"/><stop stop-color="#042121" offset="71.006%"/><stop stop-color="#062020" offset="75.861%"/><stop stop-color="#061E1F" offset="75.893%"/><stop stop-color="#071D1D" offset="83.668%"/><stop stop-color="#0A1A1B" offset="83.923%"/><stop stop-color="#0B1D1E" offset="92.534%"/><stop stop-color="#0A1A1B" offset="92.798%"/><stop stop-color="#0A1A1B" offset="100%"/></radialGradient><linearGradient x1="97.57%" y1="-10.3%" x2="68.128%" y2="185.11%" id="c"><stop stop-color="#FFE493" offset="0%"/><stop stop-color="#BC9949" offset="100%"/></linearGradient><circle id="b" cx="20.109" cy="19.849" r="19.44"/><linearGradient x1="50%" y1="-15.543%" x2="91.324%" y2="38.152%" id="f"><stop stop-color="#BCEBFF" offset="0%"/><stop stop-color="#0072E7" offset="100%"/></linearGradient><ellipse id="e" cx="25.113" cy="24.717" rx="24.801" ry="24.47"/><linearGradient x1="62.415%" y1="-40.304%" x2="75.019%" y2="50%" id="g"><stop stop-color="#E6F8FF" offset="0%"/><stop stop-color="#1998FF" offset="100%"/></linearGradient><linearGradient x1="63.182%" y1="-13.416%" x2="57.758%" y2="44.912%" id="i"><stop stop-color="#C9EAF9" offset="0%"/><stop stop-color="#4EACF9" offset="100%"/></linearGradient><path d="M11.707 52.724c11.688 0 21.89-11.215 21.89-29.55C33.597 4.842 22.69-9.82 11.002-9.82-.686-9.82-9.391 5.176-9.391 23.51c0 18.335 9.41 29.214 21.098 29.214z" id="j"/><filter x="-32.6%" y="-22.4%" width="165.1%" height="144.8%" filterUnits="objectBoundingBox" id="k"><feGaussianBlur stdDeviation="4" in="SourceAlpha" result="shadowBlurInner1"/><feOffset dx="20" dy="8" in="shadowBlurInner1" result="shadowOffsetInner1"/><feComposite in="shadowOffsetInner1" in2="SourceAlpha" operator="arithmetic" k2="-1" k3="1" result="shadowInnerInner1"/><feColorMatrix values="0 0 0 0 0 0 0 0 0 0 0 0 0 0 0 0 0 0 0.0542777535 0" in="shadowInnerInner1"/></filter><linearGradient x1="50%" y1="-75.768%" x2="61.614%" y2="129.077%" id="l"><stop stop-color="#71C9FF" offset="0%"/><stop stop-color="#0369BC" offset="100%"/></linearGradient><linearGradient x1="97.721%" y1="0%" x2="-18.38%" y2="238.895%" id="m"><stop stop-color="#076BBD" offset="0%"/><stop stop-color="#53BCFB" offset="100%"/></linearGradient><linearGradient x1="33.241%" y1="-124.446%" x2="54.459%" y2="110.885%" id="n"><stop stop-color="#97D5FA" offset="0%"/><stop stop-color="#0167B9" offset="100%"/></linearGradient><linearGradient x1="-28.488%" y1="50%" x2="246.43%" y2="50%" id="o"><stop stop-color="#1792DC" offset="0%"/><stop stop-color="#B3E4F6" offset="100%"/></linearGradient><linearGradient x1="217.726%" y1="0%" x2="4.195%" y2="50%" id="p"><stop stop-color="#06B2F3" offset="0%"/><stop stop-color="#0680E3" offset="100%"/></linearGradient><ellipse id="q" cx="22.117" cy="43.985" rx="2.645" ry="3.307"/><filter x="-37.8%" y="-30.2%" width="175.6%" height="160.5%" filterUnits="objectBoundingBox" id="r"><feGaussianBlur stdDeviation="1" in="SourceAlpha" result="shadowBlurInner1"/><feOffset dx="2" dy="-2" in="shadowBlurInner1" result="shadowOffsetInner1"/><feComposite in="shadowOffsetInner1" in2="SourceAlpha" operator="arithmetic" k2="-1" k3="1" result="shadowInnerInner1"/><feColorMatrix values="0 0 0 0 0 0 0 0 0 0 0 0 0 0 0 0 0 0 0.133932474 0" in="shadowInnerInner1"/></filter><ellipse id="s" cx="21.116" cy="21.118" rx="21.083" ry="21.113"/><linearGradient x1="94.655%" y1="55.111%" x2="-23.961%" y2="52.671%" id="t"><stop stop-color="#EF828C" offset="0%"/><stop stop-color="#EF2933" offset="42.304%"/><stop stop-color="#EF2933" offset="100%"/><stop stop-color="#EF2933" offset="100%"/></linearGradient><linearGradient x1="116.243%" y1="43.83%" x2="-17.06%" y2="62.481%" id="v"><stop stop-color="#F47B85" offset="0%"/><stop stop-color="#B52229" offset="47.357%"/><stop stop-color="#420B0E" offset="100%"/></linearGradient><path d="M-.976 23.088c5.02 2.639 9.048 4.635 13.917 8.14 6.975 5.02 18.093 1.293 33.353-11.182L42.047-.645 1.1-2.386C-4.893 12.119-5.585 20.61-.976 23.088z" id="w"/><filter x="-15.9%" y="-22.4%" width="131.8%" height="144.7%" filterUnits="objectBoundingBox" id="x"><feGaussianBlur stdDeviation="3" in="SourceAlpha" result="shadowBlurInner1"/><feOffset dx="10" dy="6" in="shadowBlurInner1" result="shadowOffsetInner1"/><feComposite in="shadowOffsetInner1" in2="SourceAlpha" operator="arithmetic" k2="-1" k3="1" result="shadowInnerInner1"/><feColorMatrix values="0 0 0 0 0 0 0 0 0 0 0 0 0 0 0 0 0 0 0.13013549 0" in="shadowInnerInner1"/></filter><linearGradient x1="116.243%" y1="46.142%" x2="-61.761%" y2="60.316%" id="y"><stop stop-color="#F47B85" offset="0%"/><stop stop-color="#B52229" offset="47.357%"/><stop stop-color="#420B0E" offset="100%"/></linearGradient><linearGradient x1="95.562%" y1="45.815%" x2="-27.65%" y2="52.382%" id="z"><stop stop-color="#F78590" offset="0%"/><stop stop-color="#EF2933" offset="40.395%"/><stop stop-color="#900C13" offset="100%"/></linearGradient><linearGradient x1="90.278%" y1="46.515%" x2="-60.958%" y2="55.243%" id="A"><stop stop-color="#DB4753" offset="0%"/><stop stop-color="#B6232A" offset="46.383%"/><stop stop-color="#430608" offset="100%"/></linearGradient><linearGradient x1="10.107%" y1="71.934%" x2="58.119%" y2="134.648%" id="B"><stop stop-color="#5012A8" offset="0%"/><stop stop-color="#CBBCD6" offset="100%"/></linearGradient><linearGradient x1="30.935%" y1="54.808%" x2="53.514%" y2="116.491%" id="C"><stop stop-color="#5B2BB8" offset="0%"/><stop stop-color="#BF9AEA" offset="100%"/></linearGradient><linearGradient x1="52.493%" y1="142.262%" x2="44.373%" y2="70.614%" id="D"><stop stop-color="#D2C5E6" offset="0%"/><stop stop-color="#9B62F5" offset="100%"/></linearGradient><linearGradient x1="51.909%" y1="27.18%" x2="58.15%" y2="-47.425%" id="F"><stop stop-color="#9B62F5" offset="0%"/><stop stop-color="#E8E8E8" offset="100%"/></linearGradient><path d="M40.014 0C17.914 0 0 17.954 0 40.102 0 62.25 17.915 80.204 40.014 80.204" id="E"/><filter x="-22.5%" y="-11.2%" width="145%" height="122.4%" filterUnits="objectBoundingBox" id="G"><feGaussianBlur stdDeviation="3" in="SourceAlpha" result="shadowBlurInner1"/><feOffset dx="12" dy="-4" in="shadowBlurInner1" result="shadowOffsetInner1"/><feComposite in="shadowOffsetInner1" in2="SourceAlpha" operator="arithmetic" k2="-1" k3="1" result="shadowInnerInner1"/><feColorMatrix values="0 0 0 0 0 0 0 0 0 0 0 0 0 0 0 0 0 0 0.0277534965 0" in="shadowInnerInner1"/></filter><linearGradient x1="177.088%" y1="43.718%" x2="0%" y2="43.718%" id="H"><stop stop-color="#9960F3" offset="0%"/><stop stop-color="#5F1DBC" offset="100%"/></linearGradient><linearGradient x1="61.594%" y1="-16.635%" x2="61.594%" y2="152.794%" id="I"><stop stop-color="#400E85" offset="0%"/><stop stop-color="#D3BBFA" offset="100%"/></linearGradient><linearGradient x1="62.448%" y1="-3.859%" x2="50%" y2="80.2%" id="J"><stop stop-color="#9960F3" offset="0%"/><stop stop-color="#5F24B2" offset="100%"/></linearGradient><linearGradient x1="50%" y1="50%" x2="68.487%" y2="103.299%" id="K"><stop stop-color="#5414AF" offset="0%"/><stop stop-color="#7421BC" offset="100%"/></linearGradient><linearGradient x1="56.383%" y1="-11.935%" x2="50%" y2="100%" id="L"><stop stop-color="#9960F3" offset="0%"/><stop stop-color="#5115A7" offset="100%"/></linearGradient><radialGradient cx="59.277%" cy="45.857%" fx="59.277%" fy="45.857%" r="60.024%" gradientTransform="matrix(-.91964 .39275 -.47357 -1.10888 1.355 .734)" id="N"><stop stop-color="#EFA207" offset=".013%"/><stop stop-color="#FFC201" offset="72.598%"/><stop stop-color="#FFD758" offset="100%"/></radialGradient><circle id="M" cx="61.328" cy="61.627" r="48.6"/><filter x="-14.4%" y="-14.4%" width="128.8%" height="128.8%" filterUnits="objectBoundingBox" id="O"><feGaussianBlur stdDeviation="8" in="SourceAlpha" result="shadowBlurInner1"/><feOffset dx="-12" dy="6" in="shadowBlurInner1" result="shadowOffsetInner1"/><feComposite in="shadowOffsetInner1" in2="SourceAlpha" operator="arithmetic" k2="-1" k3="1" result="shadowInnerInner1"/><feColorMatrix values="0 0 0 0 0 0 0 0 0 0 0 0 0 0 0 0 0 0 0.0974104021 0" in="shadowInnerInner1"/></filter><linearGradient x1="90.442%" y1="69.71%" x2="-6.643%" y2="50.588%" id="P"><stop stop-color="#A74E00" stop-opacity="0" offset="0%"/><stop stop-color="#CE4B02" stop-opacity=".459" offset="44.213%"/><stop stop-color="#E74803" stop-opacity=".747" offset="62.41%"/><stop stop-color="#D17D02" stop-opacity=".499" offset="84.593%"/><stop stop-color="#FCAD04" offset="99.966%"/></linearGradient><linearGradient x1="86.579%" y1="68.679%" x2="-4.262%" y2="48.775%" id="R"><stop stop-color="#A74E00" stop-opacity="0" offset="0%"/><stop stop-color="#D17D02" stop-opacity=".499" offset="53.607%"/><stop stop-color="#E74803" stop-opacity=".747" offset="74.679%"/><stop stop-color="#FCAD04" offset="99.966%"/></linearGradient><linearGradient x1="73.2%" y1="62.633%" x2="-3.863%" y2="47.311%" id="S"><stop stop-color="#A74E00" stop-opacity="0" offset="0%"/><stop stop-color="#E74803" stop-opacity=".747" offset="67.027%"/><stop stop-color="#D17D02" stop-opacity=".499" offset="84.293%"/><stop stop-color="#FCAD04" offset="99.966%"/></linearGradient><linearGradient x1="80.972%" y1="77.742%" x2=".083%" y2="52.725%" id="T"><stop stop-color="#A74E00" stop-opacity="0" offset="0%"/><stop stop-color="#E74803" stop-opacity=".747" offset="71.987%"/><stop stop-color="#D17D02" stop-opacity=".499" offset="87.001%"/><stop stop-color="#FCAD04" offset="99.966%"/></linearGradient></defs><g transform="translate(-141 -218)" fill="none" fill-rule="evenodd"><ellipse stroke="#FFF" stroke-width="3" fill="url(#a)" transform="rotate(-20 1083.13 764.603)" cx="1083.13" cy="764.603" rx="986.5" ry="454.5"/><g transform="rotate(-14 3211.41 -4330.08)"><mask id="d" fill="#fff"><use xlink:href="#b"/></mask><use fill="url(#c)" xlink:href="#b"/><ellipse stroke="#CC9A3A" stroke-width="8.1" mask="url(#d)" cx="18.953" cy="4.371" rx="34.83" ry="14.58"/><ellipse stroke="#CC9A3A" stroke-width="8.91" mask="url(#d)" cx="20.573" cy="12.471" rx="41.31" ry="22.68"/><ellipse stroke="#B29343" stroke-width="8.91" mask="url(#d)" transform="rotate(-2 21.665 1.343)" cx="21.665" cy="1.343" rx="20.25" ry="5.67"/><ellipse stroke="#F7DB8A" stroke-width=".5" mask="url(#d)" cx="19.446" cy="-1.46" rx="20.25" ry="5.67"/><ellipse stroke="#F7DB8A" stroke-width=".648" mask="url(#d)" transform="rotate(-2 20.192 .706)" cx="20.192" cy=".706" rx="20.25" ry="5.67"/><ellipse stroke="#F7DB8A" stroke-width="1.296" mask="url(#d)" transform="rotate(-2 20.128 2.9)" cx="20.128" cy="2.901" rx="21.06" ry="5.67"/><ellipse stroke="#D2BD82" stroke-width=".648" mask="url(#d)" transform="rotate(-2 21.383 6.801)" cx="21.383" cy="6.801" rx="29.16" ry="10.53"/><ellipse stroke="#F1D179" stroke-width="1.62" mask="url(#d)" transform="rotate(-1 21.383 14.901)" cx="21.383" cy="14.901" rx="32.4" ry="18.63"/><ellipse stroke="#D2BD82" stroke-width=".648" mask="url(#d)" transform="rotate(-1 21.383 18.141)" cx="21.383" cy="18.141" rx="29.16" ry="18.63"/><ellipse stroke="#877544" stroke-width="1.134" mask="url(#d)" transform="rotate(-2 21.383 10.041)" cx="21.383" cy="10.041" rx="29.16" ry="10.53"/></g><path d="M1141.034 665.996c-4.028 2.237-6.173 4.335-5.695 5.952 1.047 3.536 17.299 2.383 33.605-2.165 7.241-2.02 16.326-4.95 22.192-7.298 7.344-2.94 9.06-5.39 8.477-7.355-.382-1.29-3.305-1.86-7.656-1.842" stroke="#786F56" stroke-width="2.916" stroke-linecap="round"/><g transform="scale(1 -1) rotate(-46 135.126 -1981.202)"><mask id="h" fill="#fff"><use xlink:href="#e"/></mask><use fill="url(#f)" xlink:href="#e"/><ellipse fill="url(#g)" mask="url(#h)" cx="19.492" cy="24.717" rx="23.147" ry="25.793"/><g mask="url(#h)"><use fill="url(#i)" xlink:href="#j"/><use fill="#000" filter="url(#k)" xlink:href="#j"/></g><ellipse fill="url(#l)" mask="url(#h)" transform="rotate(-2 24.47 25.131)" cx="24.47" cy="25.131" rx="3.968" ry="4.629"/><ellipse fill="url(#m)" mask="url(#h)" transform="rotate(174 9.992 33.628)" cx="9.992" cy="33.628" rx="2.315" ry="3.307"/><ellipse fill="url(#n)" mask="url(#h)" transform="rotate(27 9.95 15.895)" cx="9.95" cy="15.895" rx="3.637" ry="6.283"/><ellipse fill="url(#o)" mask="url(#h)" transform="rotate(-85 23.234 7.14)" cx="23.234" cy="7.141" rx="2.645" ry="4.299"/><g mask="url(#h)" transform="rotate(-93 22.117 43.985)"><use fill="url(#p)" xlink:href="#q"/><use fill="#000" filter="url(#r)" xlink:href="#q"/></g></g><g transform="scale(-1 1) rotate(16 -2626.622 -4567.136)"><mask id="u" fill="#fff"><use xlink:href="#s"/></mask><use fill-opacity="0" fill="#FFF" xlink:href="#s"/><path d="M-2.026 22.281c12.908 4.144 20.637 6.215 23.185 6.215 6.704 0 14.4-2.464 23.088-7.391L42.712 39.06l-20.18 5.082L.742 39.803l-2.769-17.522z" fill="url(#t)" mask="url(#u)"/><g mask="url(#u)"><use fill="url(#v)" xlink:href="#w"/><use fill="#000" filter="url(#x)" xlink:href="#w"/></g><path d="M-7.402 3.145h53.46l2.78 20.009c-13.792 8.22-24.357 12.085-31.694 11.596C9.807 34.262 3.1 29.652-2.979 20.918L-7.402 3.145z" fill="url(#y)" mask="url(#u)" transform="rotate(-4 20.719 18.968)"/><path d="M5.108-.165l34.935-1.59 5.13 12.01c-5.004-.035-9.63.924-13.876 2.876-6.369 2.93-5.922 4.487-11.397 5.658-3.65.78-10.95-2.05-21.903-8.489L5.108-.165z" fill="url(#z)" mask="url(#u)"/><path d="M8.529.773c3.21 3.159 7.527 4.739 12.948 4.74 5-.001 9.134-1.44 12.401-4.317L21.457-2.696 8.529.773z" fill="url(#A)" mask="url(#u)"/></g><g transform="scale(-1 1) rotate(-44 -322.383 2373.073)"><ellipse fill="url(#B)" cx="40.517" cy="40.465" rx="40.014" ry="40.102"/><ellipse fill="url(#C)" cx="42.324" cy="40.202" rx="32.256" ry="40.102"/><path d="M41.929 80.582c8.204 0 15.491-17.971 15.491-40.14C57.42 18.271 50.133.3 41.929.3c-8.205 0-14.22 17.971-14.22 40.14 0 22.17 6.015 40.141 14.22 40.141z" fill="url(#D)"/><g transform="rotate(180 40.515 40.332)"><use fill="url(#F)" xlink:href="#E"/><use fill="#000" filter="url(#G)" xlink:href="#E"/></g><ellipse fill="url(#H)" cx="72.314" cy="34.301" rx="5.373" ry="7.7"/><ellipse fill="url(#I)" cx="47.514" cy="69.001" rx="10.746" ry="7.586"/><circle fill="#400F84" cx="29.592" cy="36.792" r="6.321"/><ellipse fill="url(#J)" cx="41.204" cy="8.034" rx="5.694" ry="4.425"/><ellipse fill="#5115A7" cx="53.677" cy="26.229" rx="4.109" ry="4.278"/><ellipse fill="#5115A7" cx="44.808" cy="44.368" rx="2.529" ry="3.08"/><ellipse fill="url(#K)" cx="29.39" cy="61.164" rx="2.562" ry="2.212"/><ellipse fill="url(#L)" cx="64.436" cy="15.129" rx="1.896" ry="2.567"/><ellipse fill="#5115A7" cx="37.676" cy="25.643" rx="2.562" ry="2.567"/><ellipse fill="#5115A7" cx="68.755" cy="61.214" rx="3.477" ry="4.278"/><ellipse fill="#461093" cx="61.623" cy="47.413" rx="3.477" ry="4.278"/></g><g transform="scale(-1 1) rotate(-3 12904.62 20084.36)"><mask id="Q" fill="#fff"><use xlink:href="#M"/></mask><g transform="rotate(72 61.328 61.627)"><use fill="url(#N)" xlink:href="#M"/><use fill="#000" filter="url(#O)" xlink:href="#M"/></g><path d="M79.117 31.737c14.56.763 23.497-5.15 23.497-14.991 0-9.842-11.4-22.412-25.715-22.412-14.316 0-32.017 9.653-30.908 19.444 1.11 9.792 18.566 17.195 33.126 17.959z" stroke="url(#P)" stroke-width="6.48" mask="url(#Q)"/><path d="M82.02 69.2c22.819-2.049 37.202-10.531 37.202-28.873 0-18.341-24.183-40.01-52.366-40.01S26.493-3.963 26.493 14.38c0 4.483-5.362 9.452-1.187 22.649 4.175 13.196 14.051 10.47 18.396 20.43 4.345 9.961 25.2 12.92 38.318 11.742z" stroke="url(#R)" stroke-width="4.86" mask="url(#Q)"/><path d="M79.887 48c24.351-.347 48.463-13.55 48.463-28.312 0-14.763-21.033-26.73-46.98-26.73-25.946 0-49.43 10.35-46.958 25.08C36.885 32.768 55.535 48.345 79.887 48z" stroke="url(#S)" stroke-width="3.24" mask="url(#Q)"/><path d="M66.104 94.321c25.969-.261 50.914-11.931 53.973-39.349 3.059-27.417-29.663-50.053-57.4-50.053-27.735 0-52.277 6.994-53.888 37.732-1.61 30.738 31.345 51.931 57.315 51.67z" stroke="url(#T)" stroke-width="8.1" mask="url(#Q)"/></g></g></svg>