<svg width="948" height="549" xmlns="http://www.w3.org/2000/svg" xmlns:xlink="http://www.w3.org/1999/xlink"><defs><radialGradient cx="50.185%" cy="50%" fx="50.185%" fy="50%" r="50%" gradientTransform="matrix(0 1 -1.00474 0 1.004 -.002)" id="a"><stop stop-color="#004F52" offset="0%"/><stop stop-color="#004F52" offset="2.597%"/><stop stop-color="#004C4F" offset="2.61%"/><stop stop-color="#004C4F" offset="5.675%"/><stop stop-color="#024A4D" offset="5.746%"/><stop stop-color="#00494C" offset="8.858%"/><stop stop-color="#00484C" offset="8.975%"/><stop stop-color="#00474A" offset="12.286%"/><stop stop-color="#004648" offset="12.378%"/><stop stop-color="#004446" offset="15.75%"/><stop stop-color="#004446" offset="16.003%"/><stop stop-color="#004144" offset="20.31%"/><stop stop-color="#004041" offset="20.46%"/><stop stop-color="#003F41" offset="25.17%"/><stop stop-color="#003D3E" offset="25.23%"/><stop stop-color="#003B3D" offset="29.428%"/><stop stop-color="#003A3B" offset="29.525%"/><stop stop-color="#003737" offset="36.477%"/><stop stop-color="#003537" offset="36.576%"/><stop stop-color="#003436" offset="39.813%"/><stop stop-color="#003233" offset="39.941%"/><stop stop-color="#003130" offset="45.868%"/><stop stop-color="#002F31" offset="45.915%"/><stop stop-color="#002E30" offset="49.576%"/><stop stop-color="#002D2D" offset="49.636%"/><stop stop-color="#00292A" offset="59.774%"/><stop stop-color="#002727" offset="59.845%"/><stop stop-color="#022323" offset="70.989%"/><stop stop-color="#042121" offset="71.006%"/><stop stop-color="#051E1D" offset="76.629%"/><stop stop-color="#051B1C" offset="76.746%"/><stop stop-color="#051818" offset="83.872%"/><stop stop-color="#081617" offset="83.923%"/><stop stop-color="#060F10" offset="91.211%"/><stop stop-color="#050D0E" offset="91.351%"/><stop offset="100%"/></radialGradient><linearGradient x1="97.57%" y1="-10.3%" x2="68.128%" y2="185.11%" id="c"><stop stop-color="#FFE493" offset="0%"/><stop stop-color="#BC9949" offset="100%"/></linearGradient><circle id="b" cx="6.536" cy="6.175" r="6.048"/><linearGradient x1="50%" y1="-15.543%" x2="91.324%" y2="38.152%" id="f"><stop stop-color="#BCEBFF" offset="0%"/><stop stop-color="#0072E7" offset="100%"/></linearGradient><ellipse id="e" cx="7.813" cy="7.69" rx="7.716" ry="7.613"/><linearGradient x1="62.415%" y1="-40.304%" x2="75.019%" y2="50%" id="g"><stop stop-color="#E6F8FF" offset="0%"/><stop stop-color="#1998FF" offset="100%"/></linearGradient><linearGradient x1="63.182%" y1="-13.416%" x2="57.758%" y2="44.912%" id="i"><stop stop-color="#C9EAF9" offset="0%"/><stop stop-color="#4EACF9" offset="100%"/></linearGradient><path d="M3.642 16.403c3.636 0 6.81-3.489 6.81-9.193S7.06-3.055 3.422-3.055c-3.636 0-6.344 4.665-6.344 10.37 0 5.703 2.928 9.088 6.564 9.088z" id="j"/><filter x="-33.6%" y="-23.1%" width="167.3%" height="146.3%" filterUnits="objectBoundingBox" id="k"><feGaussianBlur stdDeviation="1.5" in="SourceAlpha" result="shadowBlurInner1"/><feOffset dx="6" dy="3" in="shadowBlurInner1" result="shadowOffsetInner1"/><feComposite in="shadowOffsetInner1" in2="SourceAlpha" operator="arithmetic" k2="-1" k3="1" result="shadowInnerInner1"/><feColorMatrix values="0 0 0 0 0 0 0 0 0 0 0 0 0 0 0 0 0 0 0.0542777535 0" in="shadowInnerInner1"/></filter><linearGradient x1="50%" y1="-75.768%" x2="61.614%" y2="129.077%" id="l"><stop stop-color="#71C9FF" offset="0%"/><stop stop-color="#0369BC" offset="100%"/></linearGradient><linearGradient x1="97.721%" y1="0%" x2="-18.38%" y2="238.895%" id="m"><stop stop-color="#076BBD" offset="0%"/><stop stop-color="#53BCFB" offset="100%"/></linearGradient><linearGradient x1="33.241%" y1="-124.446%" x2="54.459%" y2="110.885%" id="n"><stop stop-color="#97D5FA" offset="0%"/><stop stop-color="#0167B9" offset="100%"/></linearGradient><linearGradient x1="-28.488%" y1="50%" x2="246.43%" y2="50%" id="o"><stop stop-color="#1792DC" offset="0%"/><stop stop-color="#B3E4F6" offset="100%"/></linearGradient><linearGradient x1="217.726%" y1="0%" x2="4.195%" y2="50%" id="p"><stop stop-color="#06B2F3" offset="0%"/><stop stop-color="#0680E3" offset="100%"/></linearGradient><ellipse id="q" cx="6.881" cy="13.684" rx="1" ry="1.029"/><filter x="-60.8%" y="-48.6%" width="221.5%" height="197.2%" filterUnits="objectBoundingBox" id="r"><feGaussianBlur stdDeviation=".5" in="SourceAlpha" result="shadowBlurInner1"/><feOffset dx="1" dy="-1" in="shadowBlurInner1" result="shadowOffsetInner1"/><feComposite in="shadowOffsetInner1" in2="SourceAlpha" operator="arithmetic" k2="-1" k3="1" result="shadowInnerInner1"/><feColorMatrix values="0 0 0 0 0 0 0 0 0 0 0 0 0 0 0 0 0 0 0.133932474 0" in="shadowInnerInner1"/></filter><ellipse id="s" cx="6.57" cy="6.57" rx="6.559" ry="6.568"/><linearGradient x1="94.655%" y1="55.111%" x2="-23.961%" y2="52.671%" id="t"><stop stop-color="#EF828C" offset="0%"/><stop stop-color="#EF2933" offset="42.304%"/><stop stop-color="#EF2933" offset="100%"/><stop stop-color="#EF2933" offset="100%"/></linearGradient><linearGradient x1="116.243%" y1="43.83%" x2="-17.06%" y2="62.481%" id="v"><stop stop-color="#F47B85" offset="0%"/><stop stop-color="#B52229" offset="47.357%"/><stop stop-color="#420B0E" offset="100%"/></linearGradient><path d="M-.304 7.183c1.562.82 2.815 1.442 4.33 2.532 2.17 1.562 5.629.403 10.377-3.479L13.08-.2.342-.742c-1.864 4.512-2.08 7.154-.646 7.925z" id="w"/><filter x="-16%" y="-22.5%" width="132%" height="144.9%" filterUnits="objectBoundingBox" id="x"><feGaussianBlur stdDeviation="1" in="SourceAlpha" result="shadowBlurInner1"/><feOffset dx="3" dy="2" in="shadowBlurInner1" result="shadowOffsetInner1"/><feComposite in="shadowOffsetInner1" in2="SourceAlpha" operator="arithmetic" k2="-1" k3="1" result="shadowInnerInner1"/><feColorMatrix values="0 0 0 0 0 0 0 0 0 0 0 0 0 0 0 0 0 0 0.13013549 0" in="shadowInnerInner1"/></filter><linearGradient x1="116.243%" y1="46.142%" x2="-61.761%" y2="60.316%" id="y"><stop stop-color="#F47B85" offset="0%"/><stop stop-color="#B52229" offset="47.357%"/><stop stop-color="#420B0E" offset="100%"/></linearGradient><linearGradient x1="95.562%" y1="45.815%" x2="-27.65%" y2="52.382%" id="z"><stop stop-color="#F78590" offset="0%"/><stop stop-color="#EF2933" offset="40.395%"/><stop stop-color="#900C13" offset="100%"/></linearGradient><linearGradient x1="90.278%" y1="46.515%" x2="-60.958%" y2="55.243%" id="A"><stop stop-color="#DB4753" offset="0%"/><stop stop-color="#B6232A" offset="46.383%"/><stop stop-color="#430608" offset="100%"/></linearGradient><linearGradient x1="10.107%" y1="71.934%" x2="58.119%" y2="134.648%" id="B"><stop stop-color="#5012A8" offset="0%"/><stop stop-color="#CBBCD6" offset="100%"/></linearGradient><linearGradient x1="30.935%" y1="54.808%" x2="53.514%" y2="116.491%" id="C"><stop stop-color="#5B2BB8" offset="0%"/><stop stop-color="#BF9AEA" offset="100%"/></linearGradient><linearGradient x1="52.493%" y1="142.262%" x2="44.373%" y2="70.614%" id="D"><stop stop-color="#D2C5E6" offset="0%"/><stop stop-color="#9B62F5" offset="100%"/></linearGradient><linearGradient x1="51.909%" y1="27.18%" x2="58.15%" y2="-47.425%" id="F"><stop stop-color="#9B62F5" offset="0%"/><stop stop-color="#E8E8E8" offset="100%"/></linearGradient><path d="M12.449 0C5.574 0 0 5.586 0 12.476c0 6.89 5.574 12.476 12.449 12.476" id="E"/><filter x="-24.1%" y="-12%" width="148.2%" height="124%" filterUnits="objectBoundingBox" id="G"><feGaussianBlur stdDeviation="1" in="SourceAlpha" result="shadowBlurInner1"/><feOffset dx="4" dy="-1" in="shadowBlurInner1" result="shadowOffsetInner1"/><feComposite in="shadowOffsetInner1" in2="SourceAlpha" operator="arithmetic" k2="-1" k3="1" result="shadowInnerInner1"/><feColorMatrix values="0 0 0 0 0 0 0 0 0 0 0 0 0 0 0 0 0 0 0.0277534965 0" in="shadowInnerInner1"/></filter><linearGradient x1="177.088%" y1="43.718%" x2="0%" y2="43.718%" id="H"><stop stop-color="#9960F3" offset="0%"/><stop stop-color="#5F1DBC" offset="100%"/></linearGradient><linearGradient x1="61.594%" y1="-16.635%" x2="61.594%" y2="152.794%" id="I"><stop stop-color="#400E85" offset="0%"/><stop stop-color="#D3BBFA" offset="100%"/></linearGradient><linearGradient x1="62.448%" y1="-3.859%" x2="50%" y2="80.2%" id="J"><stop stop-color="#9960F3" offset="0%"/><stop stop-color="#5F24B2" offset="100%"/></linearGradient><linearGradient x1="50%" y1="50%" x2="68.487%" y2="103.299%" id="K"><stop stop-color="#5414AF" offset="0%"/><stop stop-color="#7421BC" offset="100%"/></linearGradient><linearGradient x1="56.383%" y1="-11.935%" x2="50%" y2="100%" id="L"><stop stop-color="#9960F3" offset="0%"/><stop stop-color="#5115A7" offset="100%"/></linearGradient><radialGradient cx="59.277%" cy="45.857%" fx="59.277%" fy="45.857%" r="60.024%" gradientTransform="matrix(-.91964 .39275 -.47357 -1.10888 1.355 .734)" id="N"><stop stop-color="#EFA207" offset=".013%"/><stop stop-color="#FFC201" offset="72.598%"/><stop stop-color="#FFD758" offset="100%"/></radialGradient><circle id="M" cx="19.08" cy="19.453" r="15.12"/><filter x="-14.9%" y="-14.9%" width="129.8%" height="129.8%" filterUnits="objectBoundingBox" id="O"><feGaussianBlur stdDeviation="2.5" in="SourceAlpha" result="shadowBlurInner1"/><feOffset dx="-4" dy="2" in="shadowBlurInner1" result="shadowOffsetInner1"/><feComposite in="shadowOffsetInner1" in2="SourceAlpha" operator="arithmetic" k2="-1" k3="1" result="shadowInnerInner1"/><feColorMatrix values="0 0 0 0 0 0 0 0 0 0 0 0 0 0 0 0 0 0 0.0974104021 0" in="shadowInnerInner1"/></filter><linearGradient x1="90.442%" y1="69.71%" x2="-6.643%" y2="50.588%" id="P"><stop stop-color="#A74E00" stop-opacity="0" offset="0%"/><stop stop-color="#CE4B02" stop-opacity=".459" offset="44.213%"/><stop stop-color="#E74803" stop-opacity=".747" offset="62.41%"/><stop stop-color="#D17D02" stop-opacity=".499" offset="84.593%"/><stop stop-color="#FCAD04" offset="99.966%"/></linearGradient><linearGradient x1="86.579%" y1="68.679%" x2="-4.262%" y2="48.775%" id="R"><stop stop-color="#A74E00" stop-opacity="0" offset="0%"/><stop stop-color="#D17D02" stop-opacity=".499" offset="53.607%"/><stop stop-color="#E74803" stop-opacity=".747" offset="74.679%"/><stop stop-color="#FCAD04" offset="99.966%"/></linearGradient><linearGradient x1="73.2%" y1="62.633%" x2="-3.863%" y2="47.311%" id="S"><stop stop-color="#A74E00" stop-opacity="0" offset="0%"/><stop stop-color="#E74803" stop-opacity=".747" offset="67.027%"/><stop stop-color="#D17D02" stop-opacity=".499" offset="84.293%"/><stop stop-color="#FCAD04" offset="99.966%"/></linearGradient><linearGradient x1="80.972%" y1="77.742%" x2=".083%" y2="52.725%" id="T"><stop stop-color="#A74E00" stop-opacity="0" offset="0%"/><stop stop-color="#E74803" stop-opacity=".747" offset="71.987%"/><stop stop-color="#D17D02" stop-opacity=".499" offset="87.001%"/><stop stop-color="#FCAD04" offset="99.966%"/></linearGradient></defs><g transform="translate(-290 -265)" fill="none" fill-rule="evenodd"><ellipse fill-opacity=".75" fill="url(#a)" transform="rotate(-20 764.13 539.584)" cx="764.13" cy="539.584" rx="497.196" ry="229.068"/><g transform="rotate(-14 2404.462 -3083.85)"><mask id="d" fill="#fff"><use xlink:href="#b"/></mask><use fill="url(#c)" xlink:href="#b"/><ellipse stroke="#CC9A3A" stroke-width="2.52" mask="url(#d)" cx="6.177" cy="1.36" rx="10.836" ry="4.536"/><ellipse stroke="#CC9A3A" stroke-width="2.772" mask="url(#d)" cx="6.681" cy="3.88" rx="12.852" ry="7.056"/><ellipse stroke="#B29343" stroke-width="2.772" mask="url(#d)" transform="rotate(-2 7.02 .418)" cx="7.02" cy=".418" rx="6.3" ry="1.764"/><ellipse stroke="#F7DB8A" stroke-width=".5" mask="url(#d)" cx="6.33" cy="-.454" rx="6.3" ry="1.764"/><ellipse stroke="#F7DB8A" stroke-width=".5" mask="url(#d)" transform="rotate(-2 6.562 .22)" cx="6.562" cy=".22" rx="6.3" ry="1.764"/><ellipse stroke="#F7DB8A" stroke-width=".5" mask="url(#d)" transform="rotate(-2 6.542 .902)" cx="6.542" cy=".902" rx="6.552" ry="1.764"/><ellipse stroke="#D2BD82" stroke-width=".5" mask="url(#d)" transform="rotate(-2 6.933 2.116)" cx="6.933" cy="2.116" rx="9.072" ry="3.276"/><ellipse stroke="#F1D179" stroke-width=".504" mask="url(#d)" transform="rotate(-1 6.933 4.636)" cx="6.933" cy="4.636" rx="10.08" ry="5.796"/><ellipse stroke="#D2BD82" stroke-width=".5" mask="url(#d)" transform="rotate(-1 6.933 5.644)" cx="6.933" cy="5.644" rx="9.072" ry="5.796"/><ellipse stroke="#877544" stroke-width=".5" mask="url(#d)" transform="rotate(-2 6.933 3.124)" cx="6.933" cy="3.124" rx="9.072" ry="3.276"/></g><path d="M817.154 495.53c-1.253.696-1.92 1.349-1.771 1.851.325 1.1 5.381.742 10.454-.673 2.253-.628 5.08-1.54 6.905-2.27 2.284-.915 2.818-1.677 2.637-2.289-.119-.401-1.028-.578-2.382-.573" stroke="#786F56" stroke-width=".907" stroke-linecap="round"/><g transform="scale(1 -1) rotate(-46 -66.51 -1304.937)"><mask id="h" fill="#fff"><use xlink:href="#e"/></mask><use fill="url(#f)" xlink:href="#e"/><ellipse fill="url(#g)" mask="url(#h)" cx="6.064" cy="7.69" rx="7.201" ry="8.024"/><g mask="url(#h)"><use fill="url(#i)" xlink:href="#j"/><use fill="#000" filter="url(#k)" xlink:href="#j"/></g><ellipse fill="url(#l)" mask="url(#h)" transform="rotate(-2 7.613 7.819)" cx="7.613" cy="7.819" rx="1.235" ry="1.44"/><ellipse fill="url(#m)" mask="url(#h)" transform="rotate(174 3.109 10.462)" cx="3.109" cy="10.462" rx="1" ry="1.029"/><ellipse fill="url(#n)" mask="url(#h)" transform="rotate(27 3.096 4.945)" cx="3.096" cy="4.945" rx="1.132" ry="1.955"/><ellipse fill="url(#o)" mask="url(#h)" transform="rotate(-85 7.229 2.222)" cx="7.229" cy="2.222" rx="1" ry="1.337"/><g mask="url(#h)" transform="rotate(-93 6.88 13.684)"><use fill="url(#p)" xlink:href="#q"/><use fill="#000" filter="url(#r)" xlink:href="#q"/></g></g><g transform="scale(-1 1) rotate(16 -2074.045 -2920.962)"><mask id="u" fill="#fff"><use xlink:href="#s"/></mask><use fill-opacity="0" fill="#FFF" xlink:href="#s"/><path d="M-.63 6.932c4.016 1.289 6.42 1.933 7.213 1.933 2.085 0 4.48-.766 7.183-2.3l-.478 5.587-6.278 1.581-6.779-1.35-.861-5.451z" fill="url(#t)" mask="url(#u)"/><g mask="url(#u)"><use fill="url(#v)" xlink:href="#w"/><use fill="#000" filter="url(#x)" xlink:href="#w"/></g><path d="M-2.303.978H14.33l.865 6.225c-4.29 2.558-7.578 3.76-9.86 3.608C3.05 10.66.964 9.225-.926 6.508L-2.304.978z" fill="url(#y)" mask="url(#u)" transform="rotate(-4 6.446 5.901)"/><path d="M1.59-.051l10.868-.495 1.596 3.737c-1.557-.011-2.996.287-4.317.894-1.982.912-1.843 1.396-3.546 1.76-1.135.243-3.407-.637-6.814-2.64L1.589-.051z" fill="url(#z)" mask="url(#u)"/><path d="M2.653.24c1 .983 2.342 1.475 4.029 1.475 1.555 0 2.841-.448 3.858-1.343L6.675-.838 2.653.24z" fill="url(#A)" mask="url(#u)"/></g><g transform="scale(-1 1) rotate(-44 25.442 1454.405)"><ellipse fill="url(#B)" cx="12.605" cy="12.589" rx="12.449" ry="12.476"/><ellipse fill="url(#C)" cx="13.167" cy="12.507" rx="10.035" ry="12.476"/><path d="M13.044 25.07c2.553 0 4.82-5.591 4.82-12.488 0-6.897-2.267-12.488-4.82-12.488-2.552 0-4.423 5.59-4.423 12.488 0 6.897 1.871 12.488 4.423 12.488z" fill="url(#D)"/><g transform="rotate(180 12.605 12.548)"><use fill="url(#F)" xlink:href="#E"/><use fill="#000" filter="url(#G)" xlink:href="#E"/></g><ellipse fill="url(#H)" cx="22.498" cy="10.671" rx="1.672" ry="2.395"/><ellipse fill="url(#I)" cx="14.782" cy="21.467" rx="3.343" ry="2.36"/><circle fill="#400F84" cx="9.206" cy="11.446" r="1.967"/><ellipse fill="url(#J)" cx="12.819" cy="2.499" rx="1.771" ry="1.377"/><ellipse fill="#5115A7" cx="16.7" cy="8.16" rx="1.278" ry="1.331"/><ellipse fill="#5115A7" cx="13.94" cy="13.803" rx="1" ry="1"/><ellipse fill="url(#K)" cx="9.144" cy="19.029" rx="1" ry="1"/><ellipse fill="url(#L)" cx="20.047" cy="4.707" rx="1" ry="1"/><ellipse fill="#5115A7" cx="11.721" cy="7.978" rx="1" ry="1"/><ellipse fill="#5115A7" cx="21.391" cy="19.044" rx="1.082" ry="1.331"/><ellipse fill="#461093" cx="19.172" cy="14.751" rx="1.082" ry="1.331"/></g><g transform="scale(-1 1) rotate(-3 9283.8 15217.476)"><mask id="Q" fill="#fff"><use xlink:href="#M"/></mask><g transform="rotate(72 19.08 19.453)"><use fill="url(#N)" xlink:href="#M"/><use fill="#000" filter="url(#O)" xlink:href="#M"/></g><path d="M24.614 10.154c4.53.237 7.31-1.602 7.31-4.664 0-3.062-3.546-6.973-8-6.973-4.454 0-9.96 3.003-9.616 6.05.345 3.046 5.776 5.35 10.306 5.587z" stroke="url(#P)" stroke-width="2.016" mask="url(#Q)"/><path d="M25.517 21.809c7.1-.637 11.574-3.277 11.574-8.983S29.568.38 20.8.38 8.242-.953 8.242 4.753c0 1.395-1.668 2.941-.369 7.047 1.299 4.105 4.372 3.257 5.723 6.356 1.352 3.099 7.84 4.02 11.921 3.653z" stroke="url(#R)" stroke-width="1.512" mask="url(#Q)"/><path d="M24.854 15.213c7.576-.108 15.077-4.215 15.077-8.808S33.387-1.91 25.315-1.91 9.937 1.31 10.706 5.892c.77 4.582 6.572 9.429 14.148 9.321z" stroke="url(#S)" stroke-width="1.008" mask="url(#Q)"/><path d="M20.566 29.624c8.079-.08 15.84-3.712 16.791-12.242C38.31 8.852 28.13 1.81 19.5 1.81c-8.63 0-16.264 2.176-16.766 11.74-.5 9.562 9.752 16.156 17.832 16.074z" stroke="url(#T)" stroke-width="2.52" mask="url(#Q)"/></g></g></svg>