<?xml version="1.0" encoding="UTF-8"?>
<svg width="287px" height="61px" viewBox="0 0 287 61" version="1.1" xmlns="http://www.w3.org/2000/svg" xmlns:xlink="http://www.w3.org/1999/xlink">
    <!-- Generator: Sketch 61 (89581) - https://sketch.com -->
    <title>Group 3</title>
    <desc>Created with Sketch.</desc>
    <defs>
        <linearGradient x1="10.1066265%" y1="71.9344302%" x2="58.1187799%" y2="134.647539%" id="linearGradient-1">
            <stop stop-color="#5012A8" offset="0%"></stop>
            <stop stop-color="#CBBCD6" offset="100%"></stop>
        </linearGradient>
        <linearGradient x1="30.9347617%" y1="54.8083826%" x2="53.513558%" y2="116.491115%" id="linearGradient-2">
            <stop stop-color="#5B2BB8" offset="0%"></stop>
            <stop stop-color="#BF9AEA" offset="100%"></stop>
        </linearGradient>
        <linearGradient x1="52.4930522%" y1="142.261656%" x2="44.3726044%" y2="70.6144479%" id="linearGradient-3">
            <stop stop-color="#D2C5E6" offset="0%"></stop>
            <stop stop-color="#9B62F5" offset="100%"></stop>
        </linearGradient>
        <linearGradient x1="51.9089644%" y1="27.179994%" x2="58.1500154%" y2="-47.4253633%" id="linearGradient-4">
            <stop stop-color="#9B62F5" offset="0%"></stop>
            <stop stop-color="#E8E8E8" offset="100%"></stop>
        </linearGradient>
        <path d="M17.2900506,-1.11413101e-12 C7.74101935,-1.11413101e-12 -1.27329258e-12,7.75802606 -1.27329258e-12,17.3280362 C-1.27329258e-12,26.8980463 7.74101935,34.6560724 17.2900506,34.6560724 L17.2900506,34.6560724" id="path-5"></path>
        <filter x="-23.1%" y="-11.5%" width="146.3%" height="123.1%" filterUnits="objectBoundingBox" id="filter-7">
            <feGaussianBlur stdDeviation="1.5" in="SourceAlpha" result="shadowBlurInner1"></feGaussianBlur>
            <feOffset dx="5" dy="-1" in="shadowBlurInner1" result="shadowOffsetInner1"></feOffset>
            <feComposite in="shadowOffsetInner1" in2="SourceAlpha" operator="arithmetic" k2="-1" k3="1" result="shadowInnerInner1"></feComposite>
            <feColorMatrix values="0 0 0 0 0   0 0 0 0 0   0 0 0 0 0  0 0 0 0.0277534965 0" type="matrix" in="shadowInnerInner1"></feColorMatrix>
        </filter>
        <linearGradient x1="177.087906%" y1="43.7180799%" x2="0%" y2="43.7180799%" id="linearGradient-8">
            <stop stop-color="#9960F3" offset="0%"></stop>
            <stop stop-color="#5F1DBC" offset="100%"></stop>
        </linearGradient>
        <linearGradient x1="61.5939911%" y1="-16.6347074%" x2="61.5939911%" y2="152.7945%" id="linearGradient-9">
            <stop stop-color="#400E85" offset="0%"></stop>
            <stop stop-color="#D3BBFA" offset="100%"></stop>
        </linearGradient>
        <linearGradient x1="62.4478985%" y1="-3.8592043%" x2="50%" y2="80.2003904%" id="linearGradient-10">
            <stop stop-color="#9960F3" offset="0%"></stop>
            <stop stop-color="#5F24B2" offset="100%"></stop>
        </linearGradient>
        <linearGradient x1="50%" y1="50%" x2="68.4872142%" y2="103.299221%" id="linearGradient-11">
            <stop stop-color="#5414AF" offset="0%"></stop>
            <stop stop-color="#7421BC" offset="100%"></stop>
        </linearGradient>
        <linearGradient x1="56.3833832%" y1="-11.9348046%" x2="50%" y2="100%" id="linearGradient-12">
            <stop stop-color="#9960F3" offset="0%"></stop>
            <stop stop-color="#5115A7" offset="100%"></stop>
        </linearGradient>
        <radialGradient cx="59.2768353%" cy="45.8565197%" fx="59.2768353%" fy="45.8565197%" r="60.0241066%" gradientTransform="translate(0.592768,0.458565),rotate(156.874066),scale(1.000000,1.205766),translate(-0.592768,-0.458565)" id="radialGradient-13">
            <stop stop-color="#EFA207" offset="0.0131967905%"></stop>
            <stop stop-color="#FFC201" offset="72.5981841%"></stop>
            <stop stop-color="#FFD758" offset="100%"></stop>
        </radialGradient>
        <circle id="path-14" cx="37.8568714" cy="38.5966153" r="30"></circle>
        <filter x="-14.2%" y="-14.2%" width="128.3%" height="128.3%" filterUnits="objectBoundingBox" id="filter-16">
            <feGaussianBlur stdDeviation="5" in="SourceAlpha" result="shadowBlurInner1"></feGaussianBlur>
            <feOffset dx="-7" dy="4" in="shadowBlurInner1" result="shadowOffsetInner1"></feOffset>
            <feComposite in="shadowOffsetInner1" in2="SourceAlpha" operator="arithmetic" k2="-1" k3="1" result="shadowInnerInner1"></feComposite>
            <feColorMatrix values="0 0 0 0 0   0 0 0 0 0   0 0 0 0 0  0 0 0 0.0974104021 0" type="matrix" in="shadowInnerInner1"></feColorMatrix>
        </filter>
        <linearGradient x1="90.4424368%" y1="69.7099378%" x2="-6.64326078%" y2="50.5883284%" id="linearGradient-17">
            <stop stop-color="#A74E00" stop-opacity="0" offset="0%"></stop>
            <stop stop-color="#CE4B02" stop-opacity="0.458530136" offset="44.2126721%"></stop>
            <stop stop-color="#E74803" stop-opacity="0.747046338" offset="62.4098323%"></stop>
            <stop stop-color="#D17D02" stop-opacity="0.498947163" offset="84.5929939%"></stop>
            <stop stop-color="#FCAD04" offset="99.9656883%"></stop>
        </linearGradient>
        <linearGradient x1="86.5790513%" y1="68.6785707%" x2="-4.2615726%" y2="48.7754074%" id="linearGradient-18">
            <stop stop-color="#A74E00" stop-opacity="0" offset="0%"></stop>
            <stop stop-color="#D17D02" stop-opacity="0.498947163" offset="53.607063%"></stop>
            <stop stop-color="#E74803" stop-opacity="0.747046338" offset="74.6790014%"></stop>
            <stop stop-color="#FCAD04" offset="99.9656883%"></stop>
        </linearGradient>
        <linearGradient x1="73.2002107%" y1="62.6332886%" x2="-3.86250184%" y2="47.3114658%" id="linearGradient-19">
            <stop stop-color="#A74E00" stop-opacity="0" offset="0%"></stop>
            <stop stop-color="#E74803" stop-opacity="0.747046338" offset="67.0266948%"></stop>
            <stop stop-color="#D17D02" stop-opacity="0.498947163" offset="84.2925221%"></stop>
            <stop stop-color="#FCAD04" offset="99.9656883%"></stop>
        </linearGradient>
        <linearGradient x1="80.9715552%" y1="77.7416038%" x2="0.0833194482%" y2="52.7245651%" id="linearGradient-20">
            <stop stop-color="#A74E00" stop-opacity="0" offset="0%"></stop>
            <stop stop-color="#E74803" stop-opacity="0.747046338" offset="71.9872543%"></stop>
            <stop stop-color="#D17D02" stop-opacity="0.498947163" offset="87.0011336%"></stop>
            <stop stop-color="#FCAD04" offset="99.9656883%"></stop>
        </linearGradient>
        <linearGradient x1="97.5697935%" y1="-10.2997134%" x2="68.1284607%" y2="185.10988%" id="linearGradient-21">
            <stop stop-color="#FFE493" offset="0%"></stop>
            <stop stop-color="#BC9949" offset="100%"></stop>
        </linearGradient>
        <circle id="path-22" cx="12.9685496" cy="12.2523386" r="12"></circle>
    </defs>
    <g id="final" stroke="none" stroke-width="1" fill="none" fill-rule="evenodd">
        <g id="Group-3" transform="translate(-8.000000, -8.000000)">
            <g id="purple-planet" transform="translate(277.000000, 38.000000) scale(1, -1) rotate(139.000000) translate(-277.000000, -38.000000) translate(259.000000, 20.000000)">
                <ellipse id="Oval" fill="url(#linearGradient-1)" cx="17.5075278" cy="17.4850673" rx="17.2900506" ry="17.3280362"></ellipse>
                <ellipse id="Oval" fill="url(#linearGradient-2)" cx="18.2880079" cy="17.3713951" rx="13.937898" ry="17.3280362"></ellipse>
                <path d="M18.1173272,34.8194435 C21.6624033,34.8194435 24.8111147,27.0539287 24.8111147,17.4746806 C24.8111147,7.89543258 21.6624033,0.129917718 18.1173272,0.129917718 C14.5722512,0.129917718 11.9732587,7.89543258 11.9732587,17.4746806 C11.9732587,27.0539287 14.5722512,34.8194435 18.1173272,34.8194435 Z" id="Oval" fill="url(#linearGradient-3)"></path>
                <g id="Path-9" transform="translate(17.722586, 0.198406)">
                    <mask id="mask-6" fill="white">
                        <use xlink:href="#path-5"></use>
                    </mask>
                    <g id="Mask" transform="translate(8.645025, 17.328036) rotate(180.000000) translate(-8.645025, -17.328036) ">
                        <use fill="url(#linearGradient-4)" fill-rule="evenodd" xlink:href="#path-5"></use>
                        <use fill="black" fill-opacity="1" filter="url(#filter-7)" xlink:href="#path-5"></use>
                    </g>
                </g>
                <ellipse id="Oval" fill="url(#linearGradient-8)" cx="31.2469255" cy="14.8214476" rx="2.32173992" ry="3.32698295"></ellipse>
                <ellipse id="Oval" fill="url(#linearGradient-9)" cx="20.5309072" cy="29.8152883" rx="4.64347983" ry="3.27775047"></ellipse>
                <circle id="Oval" fill="#400F84" cx="12.7865331" cy="15.8978841" r="2.73145872"></circle>
                <ellipse id="Oval" fill="url(#linearGradient-10)" cx="17.8043348" cy="3.47145624" rx="2.46020562" ry="1.91202111"></ellipse>
                <ellipse id="Oval" fill="#5115A7" cx="23.1939062" cy="11.3337109" rx="1.77544817" ry="1.84832386"></ellipse>
                <ellipse id="Oval" fill="#5115A7" cx="19.3613735" cy="19.1713182" rx="1.09258349" ry="1.33079318"></ellipse>
                <ellipse id="Oval" fill="url(#linearGradient-11)" cx="12.6995503" cy="26.4286757" rx="1.10709253" ry="1"></ellipse>
                <ellipse id="Oval" fill="url(#linearGradient-12)" cx="27.8427722" cy="6.53712488" rx="1" ry="1.10899432"></ellipse>
                <ellipse id="Oval" fill="#5115A7" cx="16.2795983" cy="11.0802793" rx="1.10709253" ry="1.10899432"></ellipse>
                <ellipse id="Oval" fill="#5115A7" cx="29.7090768" cy="26.450672" rx="1.5023023" ry="1.84832386"></ellipse>
                <ellipse id="Oval" fill="#461093" cx="26.6271205" cy="20.4872987" rx="1.5023023" ry="1.84832386"></ellipse>
            </g>
            <g id="yellow-planet" transform="translate(38.000000, 38.500000) scale(-1, 1) translate(-38.000000, -38.500000) ">
                <mask id="mask-15" fill="white">
                    <use xlink:href="#path-14"></use>
                </mask>
                <g id="Oval" transform="translate(37.856871, 38.596615) rotate(72.000000) translate(-37.856871, -38.596615) ">
                    <use fill="url(#radialGradient-13)" fill-rule="evenodd" xlink:href="#path-14"></use>
                    <use fill="black" fill-opacity="1" filter="url(#filter-16)" xlink:href="#path-14"></use>
                </g>
                <path d="M48.8375499,20.1460137 C57.8252158,20.6170373 63.341723,16.967554 63.341723,10.8924217 C63.341723,4.8172895 56.3048783,-2.94221263 47.4683224,-2.94221263 C38.6317664,-2.94221263 27.7050755,3.01655011 28.3896893,9.06066328 C29.0743031,15.1047764 39.8498841,19.6749901 48.8375499,20.1460137 Z" id="Oval" stroke="url(#linearGradient-17)" stroke-width="4" mask="url(#mask-15)"></path>
                <path d="M50.6297116,43.2715009 C64.715197,42.0069452 73.5939445,36.7707681 73.5939445,25.4489307 C73.5939445,14.1270934 58.6662941,0.751438334 41.2693245,0.751438334 C23.8723549,0.751438334 16.3537989,-1.89057604 16.3537989,9.43126133 C16.3537989,12.198948 13.0438946,15.2660307 15.6210955,23.4120748 C18.1982965,31.558119 24.2947456,29.8748756 26.9766185,36.0236607 C29.6584913,42.1724458 42.5318395,43.9985053 50.6297116,43.2715009 Z" id="Oval" stroke="url(#linearGradient-18)" stroke-width="3" mask="url(#mask-15)"></path>
                <path d="M49.3128199,30.184645 C64.3445989,29.9710548 79.2286992,21.8213265 79.2286992,12.7086281 C79.2286992,3.59592978 66.2449569,-3.79137185 50.2286992,-3.79137185 C34.2124414,-3.79137185 19.7160392,2.59786246 21.2422747,11.6902002 C22.7685101,20.7825379 34.2810409,30.3982352 49.3128199,30.184645 Z" id="Oval" stroke="url(#linearGradient-19)" stroke-width="2" mask="url(#mask-15)"></path>
                <path d="M40.8046704,58.7785498 C56.835079,58.6172956 72.2332096,51.4132987 74.1215504,34.4889325 C76.0098912,17.5645664 55.8108276,3.59224563 38.6900004,3.59224563 C21.5691731,3.59224563 6.41983952,7.90927224 5.42545635,26.8832334 C4.43107318,45.8571946 24.7742619,58.9398041 40.8046704,58.7785498 Z" id="Oval" stroke="url(#linearGradient-20)" stroke-width="5" mask="url(#mask-15)"></path>
            </g>
            <g id="saturn" transform="translate(162.500000, 37.500000) rotate(-17.000000) translate(-162.500000, -37.500000) translate(150.000000, 25.000000)">
                <mask id="mask-23" fill="white">
                    <use xlink:href="#path-22"></use>
                </mask>
                <use id="Mask" fill="url(#linearGradient-21)" xlink:href="#path-22"></use>
                <ellipse id="Oval" stroke="#CC9A3A" stroke-width="5" mask="url(#mask-23)" cx="12.255038" cy="2.69821843" rx="21.5" ry="9"></ellipse>
                <ellipse id="Oval" stroke="#CC9A3A" stroke-width="5.5" mask="url(#mask-23)" cx="13.255038" cy="7.69821843" rx="25.5" ry="14"></ellipse>
                <ellipse id="Oval" stroke="#B29343" stroke-width="5.5" mask="url(#mask-23)" transform="translate(13.928955, 0.828748) rotate(-2.000000) translate(-13.928955, -0.828748) " cx="13.9289546" cy="0.828747544" rx="12.5" ry="3.5"></ellipse>
                <ellipse id="Oval" stroke="#F7DB8A" stroke-width="0.2" mask="url(#mask-23)" cx="12.559256" cy="-0.901249009" rx="12.5" ry="3.5"></ellipse>
                <ellipse id="Oval" stroke="#F7DB8A" stroke-width="0.4" mask="url(#mask-23)" transform="translate(13.019679, 0.435916) rotate(-2.000000) translate(-13.019679, -0.435916) " cx="13.0196789" cy="0.435916184" rx="12.5" ry="3.5"></ellipse>
                <ellipse id="Oval" stroke="#F7DB8A" stroke-width="0.8" mask="url(#mask-23)" transform="translate(12.980406, 1.790531) rotate(-2.000000) translate(-12.980406, -1.790531) " cx="12.9804064" cy="1.79053113" rx="13" ry="3.5"></ellipse>
                <ellipse id="Oval" stroke="#D2BD82" stroke-width="0.4" mask="url(#mask-23)" transform="translate(13.755038, 4.198218) rotate(-2.000000) translate(-13.755038, -4.198218) " cx="13.755038" cy="4.19821843" rx="18" ry="6.5"></ellipse>
                <ellipse id="Oval" stroke="#F1D179" mask="url(#mask-23)" transform="translate(13.755038, 9.198218) rotate(-1.000000) translate(-13.755038, -9.198218) " cx="13.755038" cy="9.19821843" rx="20" ry="11.5"></ellipse>
                <ellipse id="Oval" stroke="#D2BD82" stroke-width="0.4" mask="url(#mask-23)" transform="translate(13.755038, 11.198218) rotate(-1.000000) translate(-13.755038, -11.198218) " cx="13.755038" cy="11.1982184" rx="18" ry="11.5"></ellipse>
                <ellipse id="Oval" stroke="#877544" stroke-width="0.7" mask="url(#mask-23)" transform="translate(13.755038, 6.198218) rotate(-2.000000) translate(-13.755038, -6.198218) " cx="13.755038" cy="6.19821843" rx="18" ry="6.5"></ellipse>
            </g>
            <path d="M146.391933,35 C143.621349,35.6420252 141.991203,36.5224054 142,37.5628294 C142.019475,39.8390244 151.859016,41.9203973 162.308461,41.9962443 C166.948719,42.0299255 172.837934,41.8364287 176.718378,41.4414526 C181.576345,40.946978 183.010667,39.785222 183,38.5198111 C182.992803,37.6895972 181.35525,36.8541588 178.770524,36.124073" id="orbit" stroke="#786F56" stroke-width="1.8" stroke-linecap="round" transform="translate(162.500000, 38.500000) rotate(-19.000000) translate(-162.500000, -38.500000) "></path>
        </g>
    </g>
</svg>