<?xml version="1.0" standalone="no"?>
<!DOCTYPE svg PUBLIC "-//W3C//DTD SVG 20010904//EN"
 "http://www.w3.org/TR/2001/REC-SVG-20010904/DTD/svg10.dtd">
<svg version="1.0" xmlns="http://www.w3.org/2000/svg"
 width="1552.000000pt" height="1552.000000pt" viewBox="0 0 1552.000000 1552.000000"
 preserveAspectRatio="xMidYMid meet">
<metadata>
Created by potrace 1.11, written by Peter Selinger 2001-2013
</metadata>
<g transform="translate(0.000000,1552.000000) scale(0.100000,-0.100000)"
fill="#000000" stroke="none">
<path d="M8670 10659 c-989 -286 -1474 -464 -1945 -716 -217 -116 -554 -319
-824 -497 -123 -81 -226 -145 -228 -142 -3 3 -43 310 -89 683 -47 373 -87 689
-90 702 -4 18 -22 -16 -79 -148 -388 -901 -958 -1771 -1715 -2616 -182 -204
-701 -722 -890 -890 -608 -539 -1302 -1046 -2015 -1472 -216 -129 -341 -200
-652 -369 -106 -58 -147 -132 -123 -218 15 -55 70 -113 121 -126 27 -8 94 -5
251 10 1745 162 3564 267 5573 322 615 17 2956 17 3565 0 1718 -48 3126 -126
4715 -263 471 -40 1116 -101 1225 -115 30 -4 42 -2 35 4 -14 15 -403 265 -641
414 -919 574 -1588 918 -2269 1168 -49 18 -94 36 -98 40 -4 4 36 19 90 35 451
127 777 278 1056 488 108 81 437 388 437 407 0 4 -327 89 -727 189 -786 195
-1433 362 -1688 436 -401 115 -931 308 -1273 462 l-64 28 414 189 c227 103
626 285 886 403 259 119 472 219 472 223 0 4 -28 12 -62 18 -35 6 -154 26
-265 46 -722 125 -1320 179 -1998 178 -687 0 -1171 -53 -1515 -166 -41 -13
-76 -23 -78 -21 -7 6 40 220 69 317 71 239 200 459 529 903 109 148 114 155
103 154 -4 0 -100 -28 -213 -60z"/>
</g>
</svg>
