<?xml version="1.0" standalone="no"?>
<!DOCTYPE svg PUBLIC "-//W3C//DTD SVG 20010904//EN"
 "http://www.w3.org/TR/2001/REC-SVG-20010904/DTD/svg10.dtd">
<svg version="1.0" xmlns="http://www.w3.org/2000/svg"
 width="1404.000000pt" height="1404.000000pt" viewBox="0 0 1404.000000 1404.000000"
 preserveAspectRatio="xMidYMid meet">
<metadata>
Created by potrace 1.11, written by Peter Selinger 2001-2013
</metadata>
<g transform="translate(0.000000,1404.000000) scale(0.100000,-0.100000)"
fill="#000000" stroke="none">
<path d="M7725 9591 c-758 -221 -1116 -349 -1495 -537 -300 -148 -603 -326
-965 -566 -71 -48 -133 -84 -136 -80 -3 4 -41 288 -84 632 -42 344 -79 627
-81 629 -2 2 -7 -5 -10 -15 -20 -57 -166 -378 -226 -497 -551 -1102 -1441
-2185 -2523 -3073 -574 -471 -1280 -941 -1972 -1313 -191 -102 -213 -123 -221
-202 -6 -61 30 -128 82 -153 46 -22 77 -21 487 14 1587 132 2883 208 4504 262
517 17 2787 17 3340 0 1299 -41 2420 -97 3730 -187 546 -38 1436 -106 1704
-130 90 -9 166 -14 168 -11 5 4 -375 249 -672 431 -743 458 -1313 750 -1887
966 -92 34 -166 65 -163 67 3 3 77 27 166 54 513 154 830 337 1164 672 l110
110 -30 8 c-16 4 -356 89 -755 188 -1330 329 -1641 417 -2125 600 -195 74
-465 186 -478 199 -4 4 329 160 740 346 925 419 855 386 851 391 -6 6 -324 62
-528 93 -951 145 -1933 166 -2597 56 -132 -22 -351 -76 -405 -100 -24 -10 -23
4 8 143 32 142 73 260 130 374 51 102 218 354 366 553 118 159 122 165 111
164 -4 0 -143 -40 -308 -88z"/>
</g>
</svg>
