<?xml version="1.0" standalone="no"?>
<!DOCTYPE svg PUBLIC "-//W3C//DTD SVG 20010904//EN"
 "http://www.w3.org/TR/2001/REC-SVG-20010904/DTD/svg10.dtd">
<svg version="1.0" xmlns="http://www.w3.org/2000/svg"
 width="1404.000000pt" height="1404.000000pt" viewBox="0 0 1404.000000 1404.000000"
 preserveAspectRatio="xMidYMid meet">
<metadata>
Created by potrace 1.11, written by Peter Selinger 2001-2013
</metadata>
<g transform="translate(0.000000,1404.000000) scale(0.100000,-0.100000)"
fill="#000000" stroke="none">
<path d="M8019 9675 c-5 -4 -53 -18 -174 -50 -52 -14 -144 -41 -325 -94 -58
-18 -112 -33 -120 -36 -8 -2 -15 -4 -15 -5 0 -1 -9 -3 -21 -5 -36 -7 -567
-186 -596 -201 -15 -8 -31 -15 -35 -15 -14 -2 -37 -11 -118 -42 -44 -18 -83
-31 -87 -29 -5 1 -8 -3 -8 -8 0 -6 -6 -10 -14 -10 -25 0 -502 -230 -516 -249
-3 -3 -18 -12 -34 -19 -31 -14 -319 -183 -401 -236 -27 -18 -81 -52 -120 -77
-38 -24 -121 -78 -185 -121 -63 -42 -116 -75 -118 -73 -4 4 -13 47 -17 90 -4
37 -10 82 -20 160 -2 17 -7 53 -10 80 -5 47 -17 139 -29 230 -3 22 -8 60 -10
85 -3 25 -7 56 -10 70 -2 14 -7 51 -11 84 -4 32 -8 68 -10 80 -2 11 -6 44 -9
71 -9 78 -16 137 -21 170 -3 17 -7 55 -11 85 -7 63 -11 71 -20 44 -4 -10 -15
-37 -24 -59 -10 -22 -32 -74 -50 -115 -111 -261 -328 -670 -523 -984 -128
-208 -464 -685 -488 -694 -5 -2 -9 -8 -9 -13 0 -6 -21 -36 -47 -68 -27 -33
-55 -68 -63 -78 -14 -18 -63 -79 -100 -123 -8 -9 -33 -39 -55 -66 -22 -26 -49
-58 -60 -71 -11 -12 -40 -45 -65 -74 -25 -28 -58 -66 -75 -84 -16 -18 -64 -71
-105 -116 -165 -184 -608 -618 -775 -760 -22 -19 -49 -43 -60 -54 -11 -11 -47
-43 -80 -70 -33 -27 -65 -54 -71 -60 -7 -5 -31 -26 -54 -44 -23 -19 -48 -41
-56 -48 -7 -7 -15 -13 -18 -13 -3 0 -18 -11 -33 -25 -69 -61 -496 -385 -536
-407 -12 -6 -27 -16 -34 -22 -27 -24 -43 -35 -176 -127 -75 -51 -150 -101
-165 -109 -15 -8 -29 -17 -32 -20 -8 -8 -130 -90 -135 -90 -2 0 -31 -18 -64
-40 -33 -22 -64 -40 -70 -40 -5 0 -11 -4 -13 -8 -3 -8 -166 -108 -258 -160
-25 -14 -56 -32 -70 -41 -48 -31 -65 -41 -95 -56 -16 -8 -57 -31 -90 -50 -33
-19 -78 -44 -100 -55 -97 -48 -234 -126 -246 -140 -76 -82 -56 -211 39 -256
40 -19 79 -21 182 -10 36 3 90 8 120 11 30 2 82 7 115 10 33 3 92 8 130 10 39
3 93 7 120 9 28 3 82 7 120 11 39 3 95 7 125 10 30 3 93 8 140 11 47 3 103 7
125 9 22 2 80 6 130 10 49 3 108 8 130 10 22 2 81 6 131 9 50 3 116 8 145 10
30 3 92 8 139 11 47 3 112 7 145 10 58 5 176 12 320 20 39 2 106 7 150 9 131
9 235 15 328 21 49 2 92 7 98 10 5 4 9 1 9 -5 0 -6 5 -8 10 -5 14 8 43 10 455
30 55 3 141 8 190 10 185 10 541 25 955 40 689 25 1427 38 2130 38 469 0 1226
-9 1520 -18 74 -2 230 -7 345 -10 209 -6 274 -8 600 -20 94 -4 213 -8 265 -10
97 -4 315 -13 450 -20 145 -8 316 -16 415 -20 55 -2 143 -7 195 -10 226 -13
260 -15 355 -20 55 -2 134 -7 175 -10 163 -11 239 -15 340 -20 58 -3 128 -7
155 -10 28 -3 95 -8 150 -11 55 -3 125 -7 155 -9 30 -3 93 -7 140 -9 47 -3
112 -8 145 -10 33 -3 101 -8 150 -11 50 -4 110 -8 135 -10 25 -1 95 -6 155
-10 61 -3 120 -8 132 -10 26 -4 231 -18 280 -19 18 -1 33 -3 33 -6 0 -3 24 -5
53 -6 50 -1 196 -11 287 -19 25 -3 83 -7 130 -10 47 -2 85 -5 85 -5 0 -4 43
-8 140 -14 61 -4 124 -8 140 -11 17 -2 62 -6 100 -9 73 -6 73 -5 18 31 -59 40
-203 132 -224 143 -13 7 -26 16 -29 20 -5 6 -61 42 -205 131 -27 17 -81 50
-120 74 -38 24 -96 59 -127 77 -32 18 -58 36 -58 40 0 5 -9 8 -20 8 -11 0 -20
4 -20 8 0 5 -12 15 -27 23 -16 8 -30 16 -33 19 -3 3 -23 14 -45 25 -22 11 -46
26 -53 32 -7 7 -20 13 -28 13 -8 0 -14 3 -14 8 0 4 -17 16 -37 27 -21 11 -73
40 -116 65 -93 54 -219 124 -267 148 -19 9 -37 19 -40 22 -6 7 -467 240 -475
240 -3 0 -33 13 -67 29 -119 54 -198 89 -218 96 -3 1 -16 6 -30 12 -14 6 -50
21 -80 32 -30 12 -64 26 -75 31 -47 22 -261 100 -274 100 -16 0 -7 13 12 16
67 13 386 116 462 149 17 7 41 17 55 23 66 26 107 44 123 52 20 11 31 17 107
55 70 35 237 144 314 204 86 67 148 123 265 240 114 113 114 111 31 126 -16 3
-56 12 -89 21 -34 8 -69 17 -78 19 -45 9 -120 28 -143 36 -14 4 -36 10 -50 13
-14 2 -52 11 -85 19 -33 9 -75 19 -94 22 -19 3 -37 8 -41 10 -3 2 -17 6 -31 9
-13 3 -53 12 -89 21 -36 9 -72 18 -80 20 -8 2 -40 11 -72 19 -31 8 -67 18 -80
20 -12 3 -41 10 -63 16 -22 6 -58 14 -80 19 -22 5 -112 28 -200 51 -88 22
-171 43 -183 46 -13 2 -49 12 -80 20 -32 9 -73 20 -92 25 -19 5 -43 12 -52 14
-10 3 -26 7 -36 9 -9 2 -37 9 -62 16 -25 7 -56 14 -69 17 -13 2 -31 8 -40 12
-9 5 -19 9 -23 10 -5 1 -9 1 -10 2 -2 0 -12 2 -23 4 -11 2 -35 8 -53 13 -18 6
-36 12 -40 13 -4 1 -11 3 -17 4 -5 2 -48 13 -95 26 -47 12 -89 25 -95 28 -10
5 -16 7 -50 14 -8 2 -18 6 -21 10 -4 4 -15 7 -25 7 -10 0 -30 5 -46 12 -15 6
-32 12 -38 14 -22 5 -231 75 -250 84 -11 5 -60 23 -108 40 -48 17 -100 38
-115 46 -15 8 -31 14 -37 14 -14 0 -328 131 -340 141 -5 5 -17 9 -27 9 -34 0
-18 17 45 44 34 15 69 32 77 37 8 5 22 12 30 15 8 3 38 16 66 30 28 13 54 24
58 24 4 0 34 14 68 30 33 17 66 30 74 30 8 0 14 5 14 10 0 6 5 10 11 10 5 0
34 11 62 24 72 32 126 57 242 109 55 25 135 61 178 81 43 20 80 36 82 36 3 0
42 18 87 40 46 23 84 40 86 40 1 -1 26 10 55 23 50 24 72 34 197 90 110 49
151 70 147 74 -3 2 -16 6 -31 8 -14 3 -36 7 -48 9 -13 2 -39 7 -58 10 -47 8
-80 14 -110 20 -39 8 -271 45 -310 50 -19 3 -48 7 -65 10 -16 3 -50 7 -75 10
-25 3 -54 8 -65 10 -11 2 -47 7 -80 10 -33 3 -76 8 -95 11 -67 9 -135 16 -195
20 -33 3 -76 7 -95 10 -163 22 -550 38 -900 38 -372 0 -600 -13 -870 -48 -19
-3 -54 -7 -76 -10 -23 -3 -50 -7 -60 -10 -200 -40 -338 -75 -397 -100 -15 -6
-17 -3 -12 31 6 50 14 95 21 116 3 9 7 26 9 39 7 34 35 132 44 154 5 11 17 40
26 65 24 65 98 210 107 210 4 0 8 5 8 10 0 12 106 176 132 204 10 11 18 25 18
32 0 7 4 14 8 16 4 2 19 19 32 38 13 19 67 94 120 165 111 150 114 155 102
155 -5 0 -11 -2 -13 -5z"/>
</g>
</svg>
