<svg version="1.0" xmlns="http://www.w3.org/2000/svg" width="2986.667" height="2986.667" viewBox="0 0 2240 2240"><path d="M1279 697.5c-2.5.7-16 4.5-30 8.5-125.8 35.4-206.1 64.3-268 96.7-43.7 22.8-90.3 50.8-140.8 84.5-10.7 7.1-19.6 12.7-19.9 12.4-.4-.4-17.6-134.1-23.4-182.6-1.2-9.6-2.4-17.8-2.8-18.2-.4-.5-2.4 3.4-4.6 8.5C723.1 865.9 618.9 1016.1 476 1159c-124.7 124.9-279.7 237.3-453.8 329-13.5 7.1-19 19-15 32.2 1.3 4.5 7.7 12.2 11.8 14.3 6.9 3.6 9.7 3.5 59-1.1 230.9-21.5 465.9-37.8 657.5-45.4 14.3-.5 37.3-1.4 51-2 26-1 69.9-2.3 137.5-4 112.9-2.9 280.7-2.3 418 1.5 217.4 6 446 19.8 712.5 43 25.5 2.2 130.3 12 159.5 14.9 13.5 1.4 24.6 2.3 24.8 2.2.5-.6-62.5-40.9-102.3-65.5-126.8-78.5-225.4-128.6-320.2-162.7-7.3-2.6-13.3-5-13.3-5.3 0-.3 7.8-2.8 17.3-5.5 9.4-2.7 26.2-8 37.2-11.9 69.6-24.3 112.1-51 162-101.7 13.4-13.6 13.9-14.3 11.5-15.1-1.4-.4-17.6-4.4-36-8.9-147.4-35.9-274.2-68.4-322.5-82.6-52.6-15.5-111.1-36.5-159.5-57.4-8-3.4-16.1-6.9-18-7.7l-3.4-1.5 2.4-1.3c4.5-2.3 250.5-113.7 252.3-114.2 2.7-.8 2-2-1.5-2.6-1.8-.3-14.5-2.6-28.3-5-58.5-10.6-121.1-19-171.5-23.1-59.8-5-88.3-6-150-5.3-51.6.6-66.4 1.2-101.5 4.8-41.1 4.1-85.2 12.7-106.7 20.9-4.8 1.8-4.8 1.8-4.8-.2 0-6.9 8.5-41 14.3-57.3 9.2-26.3 30.4-60.4 72.7-117.4 8.3-11.2 15-20.4 14.8-20.6-.2-.1-2.3.3-4.8 1z"/></svg>