<svg version="1.0" xmlns="http://www.w3.org/2000/svg" width="1872" height="1872" viewBox="0 0 1404 1404"><path d="M772.5 444.9C696.7 467 660.9 479.8 623 498.6c-30 14.8-60.3 32.6-96.5 56.6-7.1 4.8-13.3 8.4-13.6 8-.3-.4-4.1-28.8-8.4-63.2-4.2-34.4-7.9-62.7-8.1-62.9-.2-.2-.7.5-1 1.5-2 5.7-16.6 37.8-22.6 49.7-55.1 110.2-144.1 218.5-252.3 307.3-57.4 47.1-128 94.1-197.2 131.3C4.2 937.1 2 939.2 1.2 947.1c-.6 6.1 3 12.8 8.2 15.3 4.6 2.2 7.7 2.1 48.7-1.4 158.7-13.2 288.3-20.8 450.4-26.2 51.7-1.7 278.7-1.7 334 0 129.9 4.1 242 9.7 373 18.7 54.6 3.8 143.6 10.6 170.4 13 9 .9 16.6 1.4 16.8 1.1.5-.4-37.5-24.9-67.2-43.1-74.3-45.8-131.3-75-188.7-96.6-9.2-3.4-16.6-6.5-16.3-6.7.3-.3 7.7-2.7 16.6-5.4 51.3-15.4 83-33.7 116.4-67.2l11-11-3-.8c-1.6-.4-35.6-8.9-75.5-18.8-133-32.9-164.1-41.7-212.5-60-19.5-7.4-46.5-18.6-47.8-19.9-.4-.4 32.9-16 74-34.6 92.5-41.9 85.5-38.6 85.1-39.1-.6-.6-32.4-6.2-52.8-9.3-95.1-14.5-193.3-16.6-259.7-5.6-13.2 2.2-35.1 7.6-40.5 10-2.4 1-2.3-.4.8-14.3 3.2-14.2 7.3-26 13-37.4 5.1-10.2 21.8-35.4 36.6-55.3 11.8-15.9 12.2-16.5 11.1-16.4-.4 0-14.3 4-30.8 8.8z"/></svg>