<?xml version="1.0" standalone="no"?>
<!DOCTYPE svg PUBLIC "-//W3C//DTD SVG 20010904//EN"
 "http://www.w3.org/TR/2001/REC-SVG-20010904/DTD/svg10.dtd">
<svg version="1.0" xmlns="http://www.w3.org/2000/svg"
 width="1552.000000pt" height="1552.000000pt" viewBox="0 0 1552.000000 1552.000000"
 preserveAspectRatio="xMidYMid meet">
<metadata>
Created by potrace 1.11, written by Peter Selinger 2001-2013
</metadata>
<g transform="translate(0.000000,1552.000000) scale(0.100000,-0.100000)"
fill="#000000" stroke="none">
<path d="M8795 10693 c-27 -8 -194 -57 -371 -108 -352 -103 -713 -221 -954
-310 -510 -190 -938 -416 -1552 -821 -243 -160 -247 -162 -252 -136 -3 15 -42
324 -86 687 -45 363 -84 668 -88 678 -5 12 -29 -34 -82 -155 -403 -934 -1015
-1852 -1805 -2708 -186 -201 -621 -631 -803 -793 -734 -654 -1676 -1310 -2542
-1771 -91 -49 -180 -102 -197 -119 -89 -84 -60 -228 55 -279 43 -20 48 -20
236 -3 399 34 532 45 911 74 1804 140 3227 214 4820 251 913 22 2466 13 3510
-20 1701 -54 3730 -174 5625 -335 156 -13 286 -23 288 -21 7 8 -641 420 -993
631 -721 433 -1294 721 -1855 930 -85 32 -159 61 -164 66 -5 4 11 12 35 19 24
6 134 40 244 75 522 169 838 359 1195 719 62 63 112 117 110 120 -3 2 -349 90
-770 194 -1460 364 -1865 478 -2375 667 -165 62 -414 163 -544 222 l-64 28
886 405 c488 222 887 406 887 410 0 3 -93 22 -207 43 -537 95 -1064 159 -1552
187 -234 13 -896 13 -1106 0 -408 -25 -769 -84 -989 -160 -33 -11 -62 -18 -64
-15 -9 9 40 228 79 351 68 212 191 422 482 821 69 95 128 177 132 183 8 13
-19 11 -80 -7z"/>
</g>
</svg>
