<?xml version="1.0" encoding="UTF-8"?>
<svg width="289px" height="109px" viewBox="0 0 289 109" version="1.1" xmlns="http://www.w3.org/2000/svg" xmlns:xlink="http://www.w3.org/1999/xlink">
    <!-- Generator: Sketch 61.2 (89653) - https://sketch.com -->
    <title>yozh</title>
    <desc>Created with Sketch.</desc>
    <defs>
        <radialGradient cx="25.8937651%" cy="79.5253577%" fx="25.8937651%" fy="79.5253577%" r="75.4284377%" gradientTransform="translate(0.258938,0.795254),scale(0.372014,1.000000),rotate(-90.000000),scale(1.000000,2.330328),translate(-0.258938,-0.795254)" id="radialGradient-1">
            <stop stop-color="#D20000" offset="0%"></stop>
            <stop stop-color="#E51212" offset="70.7851375%"></stop>
            <stop stop-color="#E84C00" offset="100%"></stop>
        </radialGradient>
        <path d="M347,255 C335.901515,247.733333 325.912879,241.677778 317.034091,236.833333 C308.155303,231.988889 299.276515,228.021456 290.397727,224.931034 C297.056818,223.177011 302.606061,221.088889 307.045455,218.666667 C311.484848,216.244444 315.924242,212.611111 320.363636,207.766667 C300.386364,202.922222 285.958333,199.288889 277.079545,196.866667 C268.200758,194.444444 259.32197,191.270498 250.443182,187.344828 L283.738636,172.310345 C268.200758,169.303448 253.772727,167.8 240.454545,167.8 C227.136364,167.8 217.147727,169.011111 210.488636,171.433333 C211.199882,167.047312 212.30973,163.413978 213.818182,160.533333 C215.326634,157.652688 218.656179,152.808244 223.806818,146 C208.994123,150.024936 197.895638,153.658269 190.511364,156.9 C183.127089,160.141731 174.248301,165.278512 163.875,172.310345 L160.545455,146 C151.656636,167.798573 137.228605,188.387462 117.261364,207.766667 C93.9545455,230.387097 67.3181818,244.568817 60.6590909,247.967742 C60.624527,247.985384 60.5899946,248.003268 60.5554936,248.021394 L60.5554907,248.021389 C58.9360068,248.872239 58.3129059,250.87484 59.1637558,252.494324 C59.7845323,253.675892 61.0538213,254.369449 62.3835039,254.253637 C112.291765,249.906768 157.220748,247.733333 197.170455,247.733333 C239.344697,247.733333 289.287879,250.155556 347,255 Z" id="path-2"></path>
    </defs>
    <g id="final" stroke="none" stroke-width="1" fill="none" fill-rule="evenodd">
        <g id="favicon" transform="translate(-58.000000, -146.000000)">
            <mask id="mask-3" fill="white">
                <use xlink:href="#path-2"></use>
            </mask>
            <use id="yozh" fill="url(#radialGradient-1)" xlink:href="#path-2"></use>
        </g>
    </g>
</svg>