<svg width="244" height="92" xmlns="http://www.w3.org/2000/svg"><defs><linearGradient x1="90.914%" y1="47.665%" x2="-16.971%" y2="58.212%" id="a"><stop stop-color="#C00000" offset="0%"/><stop stop-color="#D20000" offset="32.158%"/><stop stop-color="#FF2B2B" offset="100%"/></linearGradient></defs><path d="M244 92c-9.394-6.133-17.848-11.244-25.364-15.333-7.515-4.09-15.03-7.438-22.545-10.046 5.636-1.48 10.333-3.243 14.09-5.288 3.758-2.044 7.516-5.11 11.274-9.2-16.91-4.089-29.122-7.155-36.637-9.2-7.515-2.044-15.03-4.723-22.545-8.036l28.182-12.69c-13.152-2.538-25.364-3.807-36.637-3.807s-19.727 1.022-25.363 3.067c.602-3.702 1.54-6.769 2.818-9.2 1.277-2.432 4.095-6.52 8.454-12.267-12.537 3.397-21.931 6.464-28.182 9.2-6.25 2.736-13.765 7.072-22.545 13.007L86.182 0c-7.524 18.399-19.736 35.777-36.637 52.133C29.818 71.226 7.273 83.196 1.636 86.065l-.056.029a2.8 2.8 0 0 0 1.531 5.275c42.237-3.668 80.26-5.502 114.07-5.502 35.698 0 77.97 2.044 126.819 6.133z" fill="url(#a)" fill-rule="evenodd"/></svg>