<svg width="87" height="33" xmlns="http://www.w3.org/2000/svg"><defs><linearGradient x1="91.929%" y1="45.361%" x2="-14.202%" y2="58.526%" id="a"><stop stop-color="#7B0000" offset="0%"/><stop stop-color="#D20000" offset="33.759%"/><stop stop-color="#FF3535" offset="99.908%"/></linearGradient></defs><path d="M1128 969c-3.333-2.2-6.333-4.033-9-5.5-2.667-1.467-5.333-2.668-8-3.603 2-.531 3.667-1.164 5-1.897 1.333-.733 2.667-1.833 4-3.3-6-1.467-10.333-2.567-13-3.3a56.357 56.357 0 0 1-8-2.883l10-4.551c-4.667-.91-9-1.366-13-1.366s-7 .367-9 1.1c.214-1.328.547-2.428 1-3.3.453-.872 1.453-2.339 3-4.4-4.449 1.219-7.782 2.319-10 3.3-2.218.981-4.884 2.537-8 4.666l-1-7.966c-2.67 6.6-7.003 12.833-13 18.7-7 6.848-15 11.142-17 12.171a1 1 0 0 0 .51 1.904c14.993-1.317 28.49-1.975 40.49-1.975 12.667 0 27.667.733 45 2.2z" transform="translate(-1041 -936)" fill="url(#a)" fill-rule="evenodd"/></svg>